<svg width="400" height="400" viewBox="0 0 400 400" fill="none" xmlns="http://www.w3.org/2000/svg">
<g clip-path="url(#clip0_862_5439)">
<path d="M352.755 136.109C353.25 132.516 348.135 129.492 344.284 129.183C342.452 129.039 340.548 129.319 338.809 128.708C335.044 127.401 333.535 122.537 329.864 120.985C327.119 119.828 323.951 120.855 321.293 122.199C318.634 123.543 315.997 125.224 313.023 125.418C310.436 125.583 307.62 124.62 305.357 125.885C303.668 126.826 302.785 128.759 301.233 129.915C299.681 131.072 297.726 131.281 295.837 131.352C293.947 131.424 292 131.475 290.276 132.258C288.551 133.041 287.136 134.866 287.495 136.719L352.755 136.109Z" fill="#EBEBEB"/>
<path d="M194.862 102.807C195.365 99.2151 190.242 96.1975 186.399 95.8814C184.566 95.7377 182.655 96.0179 180.924 95.4143C177.152 94.0995 175.65 89.2354 171.979 87.6835C169.227 86.5268 166.066 87.5542 163.407 88.8978C160.749 90.2413 158.112 91.9225 155.13 92.1165C152.544 92.2818 149.735 91.319 147.471 92.5835C145.783 93.5247 144.899 95.4575 143.347 96.6142C141.795 97.771 139.841 97.9793 137.952 98.0512C136.062 98.123 134.108 98.1733 132.391 98.9636C130.673 99.754 129.251 101.565 129.61 103.418L194.862 102.807Z" fill="#EBEBEB"/>
<path d="M124.538 216.456C125.034 212.828 119.918 209.839 116.067 209.53C114.235 209.387 112.324 209.667 110.592 209.056C106.827 207.748 105.319 202.884 101.647 201.332C98.8954 200.176 95.7341 201.203 93.0757 202.547C90.4173 203.89 87.7518 205.536 84.806 205.722C82.2123 205.895 79.4031 204.932 77.1399 206.197C75.4514 207.138 74.5677 209.07 73.0158 210.227C71.4639 211.384 69.5096 211.592 67.62 211.664C65.7304 211.736 63.7762 211.786 62.059 212.569C60.3418 213.353 58.9192 215.178 59.2785 217.031L124.538 216.456Z" fill="#EBEBEB"/>
<path d="M255.273 167.385C255.582 165.164 252.449 163.34 250.1 163.153C248.979 163.059 247.815 163.232 246.751 162.865C244.452 162.061 243.533 159.086 241.284 158.138C239.61 157.419 237.691 158.066 236.046 158.856C234.401 159.647 232.813 160.703 231.017 160.818C229.436 160.918 227.719 160.336 226.332 161.105C225.305 161.68 224.766 162.873 223.81 163.569C222.824 164.182 221.681 164.494 220.52 164.468C219.362 164.435 218.209 164.623 217.121 165.021C216.582 165.23 216.124 165.608 215.817 166.099C215.51 166.59 215.37 167.167 215.419 167.744L255.273 167.385Z" fill="#EBEBEB"/>
<path d="M260.23 312.696L314.547 366.582L325.151 366.553L328.923 312.696H260.23Z" fill="#E0E0E0"/>
<path d="M304.394 317.798L249.661 366.582L287.891 366.525L320.115 339.424L304.394 317.798Z" fill="#E0E0E0"/>
<path d="M299.25 178.384L366.716 240.928L367.901 176.056L299.25 178.384Z" fill="#E0E0E0"/>
<path d="M344.702 181.085L162.23 366.553H198.182L361.148 202.166L344.702 181.085Z" fill="#E0E0E0"/>
<path d="M107.92 249.765L173.23 314.557L176.614 249.765H107.92Z" fill="#E0E0E0"/>
<path d="M153.256 254.003L36 366.553H73.7848L168.976 275.63L153.256 254.003Z" fill="#E0E0E0"/>
<path d="M164.859 227.521L258.088 320.017V227.521H164.859Z" fill="#5E77EE"/>
<path d="M226.375 229.604C224.263 231.292 90.0515 366.553 90.0515 366.553H147.875L253.383 260.42L226.375 229.604Z" fill="#5E77EE"/>
<path d="M102.023 78.8382C106.732 76.9048 108.983 71.5195 107.049 66.8099C105.116 62.1004 99.7307 59.8499 95.0211 61.7833C90.3115 63.7168 88.0611 69.102 89.9945 73.8116C91.928 78.5212 97.3132 80.7717 102.023 78.8382Z" fill="#FFD954"/>
<path d="M97.2072 90.9306C97.1008 89.6667 97.0624 88.3979 97.0922 87.1299C97.0577 85.862 97.0912 84.5933 97.1928 83.3291C97.2431 83.3291 97.2862 85.0319 97.2862 87.1299C97.2862 89.2278 97.2575 90.9306 97.2072 90.9306Z" fill="#FFD954"/>
<path d="M91.8911 81.1813C91.9414 81.1813 91.072 82.7979 89.9584 84.7306C88.8448 86.6633 87.8964 88.208 87.8533 88.1793C87.8102 88.1505 88.6723 86.5699 89.786 84.63C90.8996 82.6901 91.848 81.1526 91.8911 81.1813Z" fill="#FFD954"/>
<path d="M86.4381 77.7898C85.7617 78.4484 85.0416 79.0605 84.2826 79.6219C83.5626 80.2335 82.8016 80.7952 82.0051 81.3032C82.6826 80.6459 83.4027 80.0339 84.1605 79.471C84.8813 78.8604 85.6422 78.2987 86.4381 77.7898Z" fill="#FFD954"/>
<path d="M106.434 87.1874C106.327 86.8831 106.246 86.5708 106.189 86.2534C106.06 85.6714 105.873 84.8667 105.636 83.9902C105.399 83.1136 105.162 82.3305 104.982 81.7629C104.872 81.4586 104.786 81.1463 104.724 80.8289C104.888 81.1091 105.019 81.4083 105.112 81.7198C105.389 82.4472 105.628 83.1881 105.83 83.9399C106.067 84.8236 106.232 85.6355 106.333 86.2246C106.407 86.5401 106.44 86.8635 106.434 87.1874Z" fill="#FFD954"/>
<path d="M115.773 80.5489C114.823 79.8493 113.914 79.096 113.05 78.2929C112.14 77.5434 111.271 76.7447 110.449 75.9004C111.399 76.5962 112.309 77.3471 113.172 78.1492C114.081 78.9023 114.949 79.7033 115.773 80.5489Z" fill="#FFD954"/>
<path d="M119.366 71.4316C118.994 71.4034 118.624 71.3506 118.26 71.2735C117.541 71.1586 116.629 71.0077 115.58 70.8927C114.531 70.7778 113.582 70.6987 112.885 70.6556C112.512 70.6524 112.14 70.6187 111.772 70.555C112.143 70.506 112.519 70.494 112.892 70.5191C113.798 70.5329 114.702 70.5928 115.601 70.6987C116.501 70.7999 117.396 70.9462 118.281 71.137C118.653 71.192 119.017 71.2908 119.366 71.4316Z" fill="#FFD954"/>
<path d="M119.365 62.4645C119.365 62.5148 117.382 63.0464 114.911 63.65C112.439 64.2535 110.413 64.6989 110.406 64.6415C110.399 64.584 112.389 64.0595 114.861 63.456C117.332 62.8524 119.365 62.407 119.365 62.4645Z" fill="#FFD954"/>
<path d="M108.933 52.0109C108.976 52.0109 108.021 53.5628 106.778 55.4165C105.535 57.2702 104.529 58.7431 104.486 58.7143C105.142 57.5411 105.862 56.4042 106.641 55.3087C107.87 53.4622 108.89 51.9822 108.933 52.0109Z" fill="#FFD954"/>
<path d="M98.5948 49.8267C98.623 50.2501 98.623 50.6749 98.5948 51.0984C98.5948 51.8743 98.5948 52.952 98.5948 54.1447C98.5948 55.3374 98.5948 56.4151 98.6307 57.1982C98.6591 57.6193 98.6591 58.0417 98.6307 58.4628C98.5509 58.0458 98.5076 57.6227 98.5014 57.1982C98.4583 56.4223 98.4152 55.3374 98.4152 54.1447C98.4152 52.952 98.4152 51.8743 98.4942 51.0912C98.491 50.6676 98.5246 50.2444 98.5948 49.8267Z" fill="#FFD954"/>
<path d="M90.7638 59.5839C89.9888 58.5002 89.2694 57.378 88.6083 56.2214C87.4516 54.3318 86.5607 52.7799 86.6038 52.7511C86.6469 52.7224 87.624 54.2312 88.7592 56.1208C89.8944 58.0104 90.8069 59.5551 90.7638 59.5839Z" fill="#FFD954"/>
<path d="M86.0865 63.5569C85.7543 63.5484 85.4241 63.5026 85.1022 63.4204C84.5058 63.2911 83.6652 63.0899 82.7887 62.8241C81.9121 62.5583 81.0859 62.2852 80.5183 62.0625C80.199 61.9658 79.8926 61.8307 79.6058 61.6602C79.9315 61.7241 80.2511 61.8154 80.5614 61.9332C81.1433 62.12 81.948 62.3786 82.839 62.6517C83.7299 62.9247 84.5489 63.1402 85.1381 63.2983C85.4616 63.3547 85.7791 63.4413 86.0865 63.5569Z" fill="#FFD954"/>
<path d="M84.0379 70.6406C83.0681 70.8337 82.0863 70.961 81.0993 71.0214C80.118 71.1514 79.129 71.2138 78.1392 71.2082C79.1097 71.0194 80.0911 70.8922 81.0777 70.8274C82.0594 70.7018 83.0482 70.6394 84.0379 70.6406Z" fill="#FFD954"/>
<path d="M358.717 273.288C359.098 270.558 355.24 268.309 352.345 268.072C350.965 267.964 349.528 268.172 348.221 267.72C345.383 266.728 344.255 263.064 341.488 261.9C339.419 261.031 337.034 261.806 335.022 262.812C333.01 263.818 331.035 265.09 328.8 265.234C326.853 265.363 324.733 264.637 323.052 265.593C321.781 266.311 321.112 267.748 319.941 268.625C318.725 269.38 317.313 269.763 315.882 269.724C314.453 269.7 313.032 269.943 311.693 270.443C310.4 271.032 309.329 272.404 309.602 273.798L358.717 273.288Z" fill="white"/>
<path d="M358.719 273.288H358.482H357.763L354.961 273.339L344.558 273.497L309.589 273.921H309.431V273.77C309.367 273.358 309.392 272.937 309.504 272.536C309.615 272.135 309.811 271.762 310.078 271.442C310.601 270.772 311.311 270.272 312.118 270.005C313.958 269.38 315.862 269.646 317.6 269.322C318.464 269.196 319.281 268.855 319.978 268.331C320.62 267.734 321.215 267.091 321.76 266.405C322.058 266.066 322.398 265.766 322.773 265.514C323.158 265.267 323.584 265.092 324.031 264.997C324.89 264.847 325.766 264.825 326.632 264.932C327.449 265.03 328.275 265.049 329.096 264.99C329.892 264.899 330.671 264.695 331.409 264.386C332.89 263.79 334.226 262.949 335.634 262.317C336.987 261.635 338.488 261.299 340.002 261.34C340.729 261.396 341.435 261.609 342.072 261.965C342.667 262.32 343.209 262.758 343.681 263.266C344.615 264.243 345.348 265.292 346.203 266.139C346.968 266.989 347.994 267.558 349.12 267.756C350.183 267.928 351.225 267.835 352.202 267.907C353.879 268.05 355.485 268.652 356.844 269.646C357.731 270.24 358.39 271.12 358.712 272.139C358.798 272.499 358.811 272.873 358.748 273.238C358.76 272.876 358.724 272.513 358.64 272.16C358.295 271.174 357.633 270.331 356.757 269.761C355.392 268.83 353.801 268.286 352.152 268.187C351.196 268.13 350.155 268.23 349.048 268.065C347.869 267.864 346.791 267.277 345.98 266.398C345.096 265.529 344.356 264.48 343.437 263.524C342.983 263.039 342.463 262.62 341.892 262.281C341.288 261.957 340.622 261.765 339.938 261.721C338.476 261.69 337.029 262.024 335.728 262.691C334.348 263.316 333.012 264.164 331.496 264.774C330.728 265.102 329.918 265.317 329.089 265.414C328.246 265.474 327.399 265.455 326.56 265.356C325.73 265.259 324.89 265.281 324.067 265.421C323.248 265.613 322.515 266.07 321.983 266.721C321.432 267.424 320.827 268.082 320.172 268.69C319.426 269.255 318.548 269.623 317.622 269.761C315.804 270.091 313.922 269.832 312.197 270.429C311.461 270.671 310.812 271.123 310.329 271.729C310.095 272.008 309.922 272.333 309.823 272.684C309.724 273.034 309.7 273.402 309.755 273.762L309.568 273.612L344.414 273.346L354.861 273.295H358.453C358.541 273.286 358.63 273.284 358.719 273.288Z" fill="#263238"/>
<path d="M204.36 333.424C204.856 329.796 199.741 326.807 195.89 326.498C194.057 326.355 192.153 326.635 190.415 326.024C186.65 324.716 185.141 319.852 181.47 318.3C178.718 317.144 175.557 318.171 172.898 319.515C170.24 320.858 167.603 322.539 164.629 322.726C162.035 322.899 159.226 321.936 156.962 323.2C155.274 324.142 154.39 326.074 152.838 327.231C151.286 328.388 149.332 328.596 147.443 328.668C145.553 328.74 143.599 328.79 141.882 329.573C140.164 330.357 138.742 332.181 139.101 334.035L204.36 333.424Z" fill="white"/>
<path d="M204.36 333.425H204.037H203.081L199.352 333.489L185.521 333.683L139.101 334.215H138.943V334.064C138.86 333.526 138.892 332.976 139.037 332.451C139.182 331.926 139.436 331.438 139.783 331.018C140.478 330.145 141.412 329.493 142.47 329.142C144.899 328.316 147.421 328.668 149.741 328.237C150.9 328.07 151.997 327.613 152.931 326.908C153.787 326.116 154.58 325.258 155.302 324.343C155.692 323.891 156.142 323.495 156.639 323.165C157.144 322.847 157.701 322.618 158.284 322.489C159.419 322.296 160.575 322.267 161.718 322.403C162.81 322.533 163.912 322.559 165.009 322.482C166.07 322.359 167.107 322.085 168.091 321.67C170.067 320.88 171.842 319.773 173.702 318.918C175.484 318.025 177.458 317.583 179.45 317.632C180.41 317.699 181.343 317.979 182.181 318.451C182.979 318.915 183.706 319.493 184.336 320.169C185.572 321.455 186.549 322.856 187.691 323.991C188.715 325.12 190.085 325.878 191.585 326.146C192.949 326.279 194.318 326.344 195.688 326.34C196.893 326.432 198.076 326.713 199.194 327.174C200.133 327.544 201.023 328.026 201.845 328.611C202.499 329.091 203.075 329.667 203.555 330.321C203.911 330.798 204.172 331.34 204.324 331.916C204.415 332.27 204.446 332.636 204.417 333.001C204.417 333.252 204.417 333.367 204.417 333.367C204.417 333.367 204.417 333.231 204.417 332.986C204.426 332.63 204.383 332.274 204.288 331.93C203.834 330.618 202.957 329.493 201.795 328.733C200.98 328.149 200.097 327.667 199.165 327.296C198.061 326.855 196.895 326.589 195.709 326.506C194.438 326.427 193.051 326.563 191.585 326.34C190.02 326.108 188.576 325.365 187.476 324.228C186.305 323.078 185.32 321.677 184.106 320.42C183.499 319.771 182.802 319.212 182.037 318.76C181.234 318.316 180.344 318.053 179.429 317.992C177.479 317.945 175.548 318.384 173.81 319.271C171.978 320.111 170.218 321.232 168.192 322.044C167.178 322.471 166.109 322.754 165.016 322.884C163.898 322.961 162.775 322.937 161.661 322.813C160.554 322.677 159.433 322.704 158.334 322.892C157.794 323.015 157.279 323.228 156.811 323.524C156.34 323.838 155.913 324.212 155.539 324.638C154.807 325.569 154.002 326.441 153.132 327.246C152.155 327.998 151.003 328.492 149.784 328.683C147.377 329.121 144.877 328.783 142.564 329.573C141.573 329.898 140.701 330.508 140.056 331.327C139.741 331.704 139.509 332.143 139.375 332.616C139.241 333.089 139.209 333.585 139.28 334.071L139.093 333.92L185.399 333.539L199.266 333.46H204.015C204.129 333.442 204.244 333.43 204.36 333.425Z" fill="#263238"/>
<path d="M137.916 162.075C138.333 159.028 134.036 156.528 130.81 156.262C129.266 156.14 127.671 156.377 126.212 155.867C123.051 154.768 121.786 150.687 118.704 149.401C116.398 148.431 113.739 149.3 111.519 150.421C109.299 151.542 107.079 152.964 104.579 153.122C102.423 153.259 100.052 152.454 98.1123 153.518C96.6754 154.308 95.9569 155.939 94.6493 156.902C93.3417 157.864 91.7035 158.044 90.1229 158.13C88.5422 158.216 86.8969 158.231 85.4528 158.892C84.0086 159.553 82.816 161.047 83.1177 162.635L137.916 162.075Z" fill="white"/>
<path d="M137.916 162.075H137.65H136.845L133.72 162.132L122.116 162.304L83.1389 162.764H82.988V162.613C82.918 162.157 82.9459 161.691 83.0697 161.246C83.1936 160.802 83.4107 160.388 83.7065 160.034C84.2914 159.297 85.0776 158.745 85.9697 158.446C88.0174 157.728 90.1369 158.051 92.084 157.685C93.0502 157.55 93.9656 157.169 94.7423 156.578C95.4599 155.914 96.123 155.193 96.7253 154.423C97.0457 154.062 97.4102 153.744 97.8102 153.474C98.2349 153.202 98.7043 153.008 99.1969 152.9C100.147 152.742 101.114 152.718 102.071 152.828C102.984 152.937 103.905 152.961 104.823 152.9C105.712 152.793 106.583 152.563 107.409 152.217C109.062 151.556 110.549 150.622 112.115 149.911C113.619 149.151 115.288 148.778 116.972 148.826C117.784 148.892 118.572 149.138 119.278 149.544C119.94 149.936 120.542 150.42 121.067 150.981C122.109 152.066 122.921 153.237 123.877 154.186C124.732 155.135 125.88 155.772 127.139 155.996C128.331 156.183 129.495 156.082 130.58 156.161C132.449 156.318 134.239 156.987 135.753 158.094C136.74 158.756 137.472 159.734 137.829 160.868C137.91 161.167 137.937 161.478 137.908 161.787C137.908 161.996 137.908 162.089 137.908 162.089C137.908 162.089 137.908 161.974 137.908 161.773C137.913 161.474 137.874 161.177 137.794 160.889C137.413 159.789 136.677 158.846 135.703 158.209C134.2 157.147 132.437 156.511 130.602 156.37C129.538 156.305 128.374 156.42 127.139 156.233C125.827 156.005 124.628 155.351 123.726 154.372C122.749 153.41 121.922 152.217 120.895 151.182C120.389 150.638 119.806 150.17 119.163 149.796C118.5 149.427 117.765 149.207 117.008 149.149C115.377 149.117 113.763 149.487 112.309 150.227C110.772 150.945 109.277 151.872 107.596 152.555C106.741 152.919 105.839 153.161 104.916 153.273C103.977 153.344 103.034 153.325 102.1 153.216C101.172 153.104 100.233 153.126 99.3118 153.28C98.4005 153.494 97.5833 153.998 96.984 154.717C96.3597 155.498 95.675 156.228 94.9363 156.902C94.1098 157.533 93.1351 157.941 92.1055 158.087C90.0794 158.461 87.9814 158.173 86.0559 158.841C85.2315 159.106 84.5022 159.605 83.958 160.278C83.6959 160.591 83.5033 160.956 83.393 161.348C83.2828 161.741 83.2574 162.153 83.3185 162.556L83.1317 162.405L121.98 162.103L133.626 162.039H137.937L137.916 162.075Z" fill="#263238"/>
<path d="M333.787 82.7618C334.11 80.3693 330.734 78.4006 328.197 78.1923C326.983 78.0989 325.733 78.2785 324.605 77.8833C322.119 77.014 321.127 73.8024 318.706 72.7821C316.888 72.0206 314.805 72.6959 313.045 73.5868C311.284 74.4778 309.553 75.5842 307.591 75.7064C305.881 75.8141 303.999 75.1819 302.562 76.0153C301.448 76.6404 300.866 77.9193 299.839 78.6809C298.771 79.3372 297.536 79.6715 296.283 79.6436C295.032 79.6124 293.787 79.8147 292.611 80.24C291.476 80.7644 290.542 81.9571 290.779 83.1857L333.787 82.7618Z" fill="white"/>
<path d="M333.787 82.7618H333.579H332.947L330.497 82.8121L321.379 82.9558L290.729 83.3366H290.571V83.1857C290.513 82.8214 290.534 82.449 290.632 82.0935C290.73 81.7379 290.903 81.4073 291.138 81.1237C291.605 80.5385 292.231 80.1017 292.942 79.8663C294.558 79.3131 296.225 79.5502 297.748 79.2628C298.504 79.1605 299.219 78.8634 299.825 78.4006C300.385 77.8794 300.904 77.3148 301.377 76.7122C301.892 76.093 302.596 75.6591 303.381 75.4764C304.136 75.3467 304.906 75.3273 305.666 75.419C306.381 75.5032 307.103 75.52 307.821 75.4692C308.518 75.3898 309.2 75.2132 309.848 74.9448C311.141 74.4275 312.312 73.6946 313.548 73.1342C314.734 72.5306 316.054 72.2365 317.384 72.2792C318.026 72.3229 318.649 72.5094 319.209 72.8252C319.741 73.1342 320.225 73.519 320.646 73.9676C321.458 74.8226 322.083 75.7495 322.852 76.4895C323.518 77.236 324.412 77.7412 325.395 77.9264C326.329 78.0773 327.242 77.9911 328.097 78.0558C329.569 78.1824 330.979 78.7119 332.171 79.5861C332.945 80.0963 333.521 80.8573 333.802 81.7416C333.879 82.0567 333.891 82.3843 333.838 82.7043C333.836 82.3876 333.8 82.0719 333.73 81.7631C333.407 80.9134 332.81 80.1954 332.034 79.7226C330.854 78.8916 329.471 78.3951 328.032 78.2857C327.199 78.2354 326.286 78.3288 325.309 78.1851C324.278 78.0142 323.331 77.5094 322.615 76.7481C321.839 75.9866 321.178 75.0597 320.388 74.2335C319.988 73.8101 319.531 73.4449 319.03 73.1486C318.508 72.8602 317.929 72.6909 317.334 72.6528C316.058 72.6204 314.795 72.9043 313.655 73.4791C312.448 74.0323 311.277 74.7723 309.948 75.3112C309.274 75.5966 308.563 75.7853 307.836 75.8716C307.094 75.9256 306.348 75.9112 305.609 75.8285C304.891 75.7428 304.166 75.7597 303.453 75.8788C302.74 76.0462 302.104 76.4455 301.643 77.014C301.155 77.6285 300.622 78.2049 300.047 78.7383C299.394 79.2398 298.622 79.564 297.806 79.6795C296.211 79.9741 294.558 79.7514 293.057 80.2687C292.41 80.4723 291.836 80.8591 291.404 81.3823C291.202 81.6244 291.054 81.9063 290.969 82.2096C290.883 82.5129 290.863 82.8308 290.908 83.1426L290.722 82.9917L321.257 82.7762H330.418H333.564L333.787 82.7618Z" fill="#263238"/>
<path d="M208.522 209.049L208.004 220.861C208.004 220.861 219.838 225.358 219.96 227.55L197.012 227.37L197.062 208.927L208.522 209.049Z" fill="#455A64"/>
<path d="M200.92 219.811C200.699 219.877 200.509 220.021 200.387 220.217C200.265 220.413 200.22 220.647 200.259 220.875C200.315 221.099 200.456 221.292 200.651 221.415C200.846 221.538 201.082 221.581 201.308 221.536C201.548 221.473 201.755 221.322 201.888 221.112C202.021 220.903 202.071 220.652 202.026 220.408C201.943 220.181 201.776 219.995 201.559 219.889C201.342 219.784 201.092 219.766 200.863 219.84" fill="#E0E0E0"/>
<g opacity="0.6">
<path d="M197.012 227.37L197.091 225.509L219.062 226.378C219.062 226.378 220.082 226.831 219.96 227.55L197.012 227.37Z" fill="white"/>
</g>
<path d="M208.377 220.767C208.377 220.882 207.81 220.933 207.257 221.285C206.703 221.637 206.409 222.111 206.301 222.068C206.193 222.025 206.373 221.349 207.02 220.954C207.666 220.559 208.399 220.645 208.377 220.767Z" fill="#263238"/>
<path d="M210.778 221.765C210.778 221.873 210.318 222.06 209.93 222.527C209.542 222.994 209.434 223.497 209.319 223.497C209.204 223.497 209.14 222.858 209.628 222.276C210.117 221.694 210.778 221.658 210.778 221.765Z" fill="#263238"/>
<path d="M212.121 224.654C212.02 224.654 211.869 224.115 212.156 223.504C212.444 222.894 212.976 222.657 213.026 222.75C213.076 222.843 212.746 223.167 212.509 223.67C212.271 224.172 212.228 224.647 212.121 224.654Z" fill="#263238"/>
<path d="M208.198 218.044C208.148 218.145 207.638 217.986 206.998 218.044C206.359 218.101 205.87 218.281 205.813 218.18C205.755 218.08 206.237 217.692 206.984 217.656C207.731 217.62 208.248 217.958 208.198 218.044Z" fill="#263238"/>
<path d="M244.172 209.049L243.662 220.861C243.662 220.861 255.503 225.358 255.618 227.55L232.669 227.37L232.72 208.927L244.172 209.049Z" fill="#455A64"/>
<path d="M236.571 219.811C236.35 219.878 236.161 220.023 236.04 220.219C235.918 220.414 235.872 220.647 235.91 220.875C235.966 221.099 236.106 221.292 236.302 221.415C236.497 221.538 236.732 221.582 236.959 221.536C237.199 221.474 237.408 221.324 237.541 221.114C237.675 220.904 237.723 220.652 237.677 220.408C237.596 220.18 237.428 219.993 237.211 219.887C236.993 219.781 236.743 219.764 236.513 219.84" fill="#E0E0E0"/>
<g opacity="0.6">
<path d="M232.662 227.37L232.741 225.509L254.712 226.378C254.712 226.378 255.732 226.831 255.61 227.55L232.662 227.37Z" fill="white"/>
</g>
<path d="M244.029 220.767C244.029 220.882 243.461 220.933 242.908 221.285C242.355 221.637 242.06 222.111 241.96 222.068C241.859 222.025 242.024 221.349 242.678 220.954C243.332 220.559 244.058 220.645 244.029 220.767Z" fill="#263238"/>
<path d="M246.429 221.765C246.429 221.873 245.969 222.06 245.581 222.527C245.193 222.994 245.086 223.497 244.971 223.497C244.856 223.497 244.798 222.858 245.287 222.276C245.775 221.694 246.429 221.658 246.429 221.765Z" fill="#263238"/>
<path d="M247.772 224.654C247.671 224.654 247.52 224.115 247.815 223.504C248.109 222.894 248.627 222.657 248.677 222.75C248.727 222.843 248.397 223.167 248.167 223.67C247.937 224.172 247.887 224.647 247.772 224.654Z" fill="#263238"/>
<path d="M243.849 218.044C243.799 218.145 243.289 217.986 242.657 218.044C242.024 218.101 241.529 218.281 241.471 218.18C241.414 218.08 241.888 217.692 242.635 217.656C243.382 217.62 243.907 217.958 243.849 218.044Z" fill="#263238"/>
<path d="M197.119 53.8933C196.255 51.7039 195.579 49.4444 195.101 47.1396C194.623 44.8245 194.729 42.427 195.409 40.1632C195.517 39.8255 196.494 37.5479 196.846 37.5695C197.098 37.5695 196.523 39.7249 196.66 39.9189C197.894 42.0267 198.46 44.4592 198.283 46.8953C198.158 49.2571 197.768 51.5973 197.119 53.8718" fill="#263238"/>
<path d="M197.873 66.4162L197.018 45.0702C196.616 39.1859 199.246 33.9051 205.144 33.668H205.784C208.408 33.7149 210.919 34.7475 212.817 36.5605C214.715 38.3734 215.862 40.8341 216.029 43.4536C216.353 48.5836 216.647 54.2739 216.561 57.0257C216.396 62.6801 210.72 63.492 210.72 63.492C210.72 63.492 210.964 67.5945 211.007 69.2398C211.007 69.2398 210.404 69.6781 205.13 69.8649C199.856 70.0517 197.873 66.4162 197.873 66.4162Z" fill="#FFBF9D"/>
<path d="M210.72 63.4706C208.119 63.4125 205.589 62.6123 203.427 61.1643C203.427 61.1643 205.152 65.3099 210.806 64.9004L210.72 63.4706Z" fill="#FF9A6C"/>
<path d="M214.082 48.5981C214.082 48.809 213.999 49.0116 213.852 49.1621C213.704 49.3126 213.503 49.399 213.292 49.4028C213.088 49.4147 212.887 49.3462 212.732 49.2119C212.578 49.0777 212.482 48.8883 212.466 48.6843C212.469 48.4739 212.554 48.2732 212.703 48.1245C212.852 47.9757 213.053 47.8905 213.263 47.8868C213.466 47.873 213.666 47.94 213.819 48.0733C213.973 48.2066 214.067 48.3953 214.082 48.5981Z" fill="#263238"/>
<path d="M214.599 46.5792C214.499 46.687 213.881 46.2199 213.019 46.2056C212.156 46.1912 211.51 46.6151 211.416 46.5073C211.323 46.3996 211.474 46.2774 211.754 46.0763C212.136 45.8213 212.588 45.6908 213.047 45.7026C213.499 45.7118 213.936 45.8626 214.297 46.1337C214.563 46.3421 214.649 46.5361 214.599 46.5792Z" fill="#263238"/>
<path d="M206.646 48.7347C206.545 48.8353 205.927 48.3754 205.072 48.3611C204.217 48.3467 203.556 48.7706 203.463 48.6628C203.37 48.555 203.521 48.4257 203.808 48.2317C204.186 47.9738 204.637 47.8429 205.094 47.8581C205.548 47.8602 205.989 48.0089 206.351 48.282C206.61 48.4976 206.696 48.6844 206.646 48.7347Z" fill="#263238"/>
<path d="M209.298 53.4334C209.765 53.2932 210.248 53.2159 210.735 53.2035C210.958 53.2035 211.166 53.146 211.209 52.9951C211.233 52.766 211.185 52.5352 211.073 52.3341L210.448 50.6313C209.854 49.186 209.373 47.6966 209.011 46.1768C209.71 47.5644 210.296 49.006 210.764 50.4876L211.367 52.1976C211.501 52.4669 211.535 52.7753 211.461 53.067C211.429 53.1456 211.379 53.2158 211.316 53.2719C211.252 53.328 211.176 53.3685 211.094 53.3903C210.969 53.4172 210.842 53.4317 210.713 53.4334C210.244 53.4954 209.768 53.4954 209.298 53.4334Z" fill="#263238"/>
<path d="M206.689 46.4141C206.582 46.644 205.727 46.4572 204.699 46.4859C203.672 46.5147 202.824 46.723 202.709 46.4859C202.659 46.3853 202.824 46.177 203.176 45.9758C203.643 45.7353 204.16 45.6051 204.685 45.5951C205.211 45.5851 205.732 45.6957 206.208 45.9183C206.567 46.1051 206.74 46.3063 206.689 46.4141Z" fill="#263238"/>
<path d="M214.923 43.3032C214.794 43.5331 214.068 43.4828 213.249 43.6481C212.43 43.8133 211.762 44.1079 211.56 43.9426C211.467 43.8564 211.56 43.6409 211.798 43.3966C212.163 43.0745 212.611 42.8606 213.091 42.7787C213.57 42.6808 214.067 42.7156 214.528 42.8793C214.858 43.0374 214.995 43.217 214.923 43.3032Z" fill="#263238"/>
<path d="M197.407 49.2304C197.306 49.1873 193.534 48.0161 193.592 51.8815C193.649 55.747 197.522 54.8992 197.529 54.7914C197.536 54.6836 197.407 49.2304 197.407 49.2304Z" fill="#FFBF9D"/>
<path d="M196.243 53.3616C196.243 53.3616 196.171 53.4119 196.056 53.4622C195.976 53.4958 195.891 53.5131 195.804 53.5131C195.718 53.5131 195.632 53.4958 195.553 53.4622C195.301 53.3062 195.096 53.0865 194.957 52.8252C194.818 52.564 194.751 52.2706 194.762 51.975C194.747 51.6428 194.806 51.3114 194.935 51.005C194.971 50.884 195.036 50.7733 195.123 50.6822C195.211 50.591 195.318 50.5219 195.438 50.4805C195.514 50.4592 195.596 50.4656 195.668 50.4984C195.74 50.5313 195.799 50.5885 195.833 50.6601C195.89 50.7679 195.833 50.8469 195.89 50.8541C195.948 50.8613 195.969 50.7895 195.934 50.6242C195.911 50.5308 195.858 50.4474 195.783 50.3871C195.675 50.3084 195.541 50.2748 195.409 50.2937C195.246 50.3219 195.093 50.3935 194.966 50.5009C194.84 50.6083 194.745 50.7477 194.691 50.9044C194.529 51.2424 194.452 51.6149 194.468 51.9893C194.454 52.3342 194.542 52.6755 194.723 52.9698C194.903 53.2641 195.167 53.4981 195.481 53.6418C195.584 53.6706 195.693 53.6759 195.798 53.6572C195.904 53.6386 196.004 53.5965 196.092 53.5341C196.242 53.4478 196.243 53.3616 196.243 53.3616Z" fill="#FF9A6C"/>
<path d="M213.379 37.2029C213.996 36.8365 212.071 34.8535 210.505 34.1925C208.155 33.1938 204.584 32.6262 202.458 33.28C199.893 34.0775 197.773 35.4355 196.53 37.7921C195.342 40.2153 194.817 42.9098 195.007 45.6019C194.994 46.4264 195.199 47.2397 195.603 47.9585C196.164 48.7992 197.213 49.3165 197.198 50.4948C197.189 50.7088 197.223 50.9224 197.297 51.1234C197.371 51.3244 197.484 51.5088 197.63 51.6659C198.348 52.3844 199.203 51.6659 199.584 50.9474C200.403 49.4171 200.453 47.5993 200.489 45.8606C200.578 44.627 200.467 43.387 200.159 42.1892C199.95 41.5497 199.634 40.9462 199.44 40.2924C199.334 39.9723 199.298 39.6329 199.337 39.2978C199.375 38.9627 199.486 38.6401 199.663 38.3525C199.756 38.2354 199.859 38.1272 199.972 38.0292C200.501 37.5463 201.149 37.2126 201.85 37.0624C202.551 36.9122 203.278 36.9507 203.959 37.1742C206.158 37.8927 209.908 38.956 210.864 38.1944C211.547 37.7216 212.123 37.1095 212.552 36.3982L213.379 37.2029Z" fill="#263238"/>
<path d="M209.893 55.783C209.893 55.8476 209.699 55.977 209.311 56.0201C208.8 56.0708 208.285 55.9788 207.824 55.7542C207.349 55.5531 206.94 55.2218 206.645 54.7987C206.437 54.4682 206.401 54.2239 206.459 54.1951C206.516 54.1664 207.055 54.9136 208.003 55.3303C208.952 55.7471 209.828 55.6393 209.893 55.783Z" fill="#263238"/>
<path d="M263.78 46.3633C263.78 46.3633 263.629 45.458 263.184 45.458C262.883 45.4565 262.588 45.5409 262.333 45.7013C262.079 45.8616 261.875 46.0913 261.747 46.3633C261.438 47.0243 263.78 46.3633 263.78 46.3633Z" fill="#FFBF9D"/>
<path d="M252.356 60.7693L252.801 53.6348L254.238 46.2848C254.238 46.2848 255.359 45.0921 255.955 45.3651C256.552 45.6381 256.329 46.6296 256.329 46.6296C256.329 46.6296 257.895 44.934 258.484 45.322C259.073 45.71 258.858 46.6296 258.858 46.6296C258.858 46.6296 260.295 44.7472 260.949 45.2645C261.602 45.7818 260.949 46.6296 260.949 46.6296C260.949 46.6296 261.832 54.8562 261.387 57.802C261.252 58.6607 260.914 59.4747 260.4 60.1759C259.886 60.8772 259.212 61.4452 258.434 61.8326L257.249 66.4596L251.407 63.284L252.356 60.7693Z" fill="#FFBF9D"/>
<path d="M255.926 51.4286L224.213 51.0766V48.5403L255.926 47.6494V51.4286Z" fill="#FF9A6C"/>
<path d="M289.415 53.9431L244.604 52.0535C244.045 50.4506 244.045 48.706 244.604 47.1032L289.149 45.1345C291.154 47.2684 291.175 51.7517 289.415 53.9431Z" fill="#FF9A6C"/>
<path d="M288.984 45.5444C288.984 45.5444 287.633 46.809 287.684 49.5607C287.734 52.3125 289.121 53.4692 289.121 53.4692C290.093 52.255 290.545 50.705 290.378 49.1584C290.141 46.4641 288.984 45.5444 288.984 45.5444Z" fill="#E0E0E0"/>
<path d="M287.188 53.9437C286.822 53.6504 286.525 53.2799 286.319 52.8588C285.734 51.8742 285.429 50.7491 285.435 49.6041C285.434 48.4678 285.702 47.3474 286.218 46.335C286.411 45.9011 286.713 45.5248 287.095 45.2429C287.145 45.2429 286.8 45.6884 286.455 46.45C286.034 47.4509 285.814 48.5252 285.809 49.6113C285.801 50.6948 286.047 51.765 286.527 52.7366C286.771 53.1259 286.991 53.5289 287.188 53.9437Z" fill="#263238"/>
<path d="M289.185 45.2356C289.235 45.2787 288.905 45.6954 288.545 46.457C288.075 47.4447 287.842 48.5283 287.863 49.6219C287.884 50.7156 288.16 51.7893 288.667 52.7581C288.86 53.1663 289.131 53.5325 289.465 53.8358C289.465 53.8358 289.314 53.8358 289.106 53.6849C288.832 53.4664 288.605 53.1952 288.438 52.8874C287.835 51.9051 287.506 50.7798 287.485 49.6277C287.463 48.4757 287.75 47.3389 288.315 46.3349C288.514 45.9047 288.812 45.5279 289.185 45.2356Z" fill="#263238"/>
<path d="M289.767 47.5345C289.717 47.3898 289.636 47.2576 289.53 47.1465C289.478 47.0896 289.413 47.0466 289.34 47.0215C289.267 46.9963 289.189 46.9899 289.113 47.0028C289.038 47.021 288.968 47.0593 288.913 47.1137C288.857 47.1681 288.817 47.2365 288.797 47.3117C288.76 47.4615 288.778 47.6195 288.848 47.7572C289.013 48.0805 289.279 48.3823 289.264 48.7056C289.25 49.0289 289.178 49.3522 289.2 49.6755C289.206 49.7933 289.243 49.9073 289.307 50.006C289.339 50.0565 289.384 50.0973 289.437 50.124C289.49 50.1506 289.55 50.162 289.609 50.1569C289.803 50.1569 289.897 49.9126 289.94 49.7258C290.11 48.9951 290.05 48.2296 289.767 47.5345Z" fill="white"/>
<path d="M244.596 52.2119C244.125 51.4409 243.911 50.5402 243.985 49.6397C243.947 48.7347 244.199 47.8411 244.704 47.0891C244.812 47.1322 244.395 48.2315 244.381 49.6469C244.366 51.0623 244.704 52.1759 244.596 52.2119Z" fill="#263238"/>
<path d="M224.148 51.6806C224.02 51.6806 223.897 51.6299 223.807 51.5396C223.717 51.4494 223.666 51.3269 223.666 51.1993V48.5121C223.666 48.3845 223.717 48.262 223.807 48.1718C223.897 48.0815 224.02 48.0308 224.148 48.0308C224.276 48.0307 224.399 48.0812 224.49 48.1713C224.582 48.2614 224.634 48.3838 224.636 48.5121V51.2064C224.632 51.3335 224.579 51.4541 224.488 51.5427C224.397 51.6312 224.275 51.6807 224.148 51.6806Z" fill="#5E77EE"/>
<path d="M224.148 51.6802C224.148 51.6802 224.277 51.6802 224.406 51.5149C224.484 51.439 224.527 51.3357 224.529 51.2275C224.529 51.0623 224.529 50.897 224.529 50.7246C224.529 50.2935 224.529 49.8481 224.493 49.3882C224.493 49.1296 224.493 48.8709 224.493 48.5979C224.504 48.5524 224.504 48.505 224.494 48.4593C224.484 48.4136 224.463 48.3708 224.434 48.3342C224.405 48.2975 224.368 48.2679 224.326 48.2476C224.284 48.2274 224.238 48.2169 224.191 48.2171C224.145 48.2182 224.099 48.2295 224.058 48.2502C224.016 48.2709 223.98 48.3005 223.951 48.3368C223.922 48.3731 223.902 48.4154 223.891 48.4605C223.88 48.5056 223.88 48.5525 223.889 48.5979C223.889 48.8709 223.889 49.1296 223.889 49.3882C223.889 49.8672 223.875 50.3127 223.846 50.7246V51.2275C223.845 51.2807 223.855 51.3334 223.875 51.3827C223.895 51.4321 223.924 51.477 223.961 51.5149C224.09 51.6443 224.227 51.6514 224.22 51.6802C224.212 51.7089 224.083 51.7592 223.868 51.6299C223.804 51.5864 223.751 51.53 223.712 51.4643C223.672 51.3986 223.647 51.3253 223.638 51.2491C223.638 51.0767 223.638 50.9042 223.638 50.7246C223.638 50.2935 223.638 49.8481 223.602 49.3882C223.602 49.1296 223.602 48.8709 223.602 48.5979C223.585 48.4148 223.639 48.2323 223.753 48.0878C223.816 48.0117 223.895 47.9504 223.984 47.9082C224.074 47.866 224.171 47.8439 224.27 47.8435C224.37 47.8456 224.468 47.8685 224.558 47.9105C224.648 47.9526 224.729 48.0129 224.794 48.0878C224.906 48.2333 224.957 48.4158 224.938 48.5979C224.938 48.8709 224.938 49.1296 224.938 49.3882C224.938 49.8672 224.924 50.3127 224.895 50.7246C224.895 50.9042 224.895 51.0767 224.895 51.2491C224.883 51.3253 224.856 51.3984 224.816 51.4639C224.775 51.5294 224.721 51.5859 224.658 51.6299C224.263 51.7592 224.141 51.6945 224.148 51.6802Z" fill="#263238"/>
<path d="M229.659 56.9973C229.659 56.9973 228.983 48.6701 229.184 47.9373C229.386 47.2044 231.678 44.6323 232.482 44.5461C233.287 44.4598 233.373 45.3507 233.373 45.3507C234.042 44.9054 234.809 44.627 235.608 44.5389C235.913 44.5087 236.219 44.5947 236.464 44.7798C236.709 44.9649 236.875 45.2354 236.93 45.5376C237.463 45.2186 238.099 45.1182 238.704 45.2573C239.178 45.3436 239.724 46.177 239.724 46.177C239.724 46.177 240.896 45.6741 241.456 46.177C241.914 46.6808 242.169 47.3357 242.174 48.0163C241.428 48.0115 240.698 48.2428 240.091 48.6773C239.955 50.4918 239.708 52.2962 239.351 54.0803C238.905 55.8621 237.138 57.3421 236.542 58.2618L236.075 64.4192L228.502 60.4244L229.659 56.9973Z" fill="#FFBF9D"/>
<path d="M231.362 48.5618C231.313 48.1788 231.343 47.7899 231.45 47.4191C231.558 47.0483 231.74 46.7036 231.987 46.4063C232.181 46.0705 232.443 45.7789 232.756 45.55C233.068 45.3212 233.426 45.1601 233.805 45.0771C233.259 45.5482 232.754 46.065 232.296 46.6219C231.935 47.2434 231.623 47.892 231.362 48.5618Z" fill="#FF9A6C"/>
<path d="M235.041 48.4183C234.933 48.0875 234.906 47.7359 234.961 47.3924C235.016 47.0489 235.152 46.7234 235.357 46.4425C235.614 46.0103 236.009 45.6764 236.478 45.4941C236.837 45.372 237.074 45.4007 237.081 45.4438C237.088 45.4869 236.205 45.7312 235.68 46.6437C235.407 47.2118 235.192 47.8064 235.041 48.4183Z" fill="#FF9A6C"/>
<path d="M237.784 48.1452C237.684 48.1452 237.849 47.3333 238.56 46.7082C239.271 46.0831 240.062 45.9897 240.069 46.0759C240.076 46.1622 239.43 46.4136 238.812 46.9884C238.194 47.5632 237.914 48.1811 237.784 48.1452Z" fill="#FF9A6C"/>
<path d="M257.17 59.0444C258.434 57.5571 257.471 53.5552 257.471 53.5552C258.002 53.3661 258.481 53.055 258.869 52.6469C259.257 52.2388 259.544 51.7451 259.706 51.2058C260.151 49.4168 259.26 49.115 259.26 49.115C258.959 49.2659 256.2 51.0549 254.784 51.8021C253.369 52.5493 252.923 60.1364 252.923 60.1364" fill="#FFBF9D"/>
<path d="M252.924 60.1082C252.887 59.7764 252.887 59.4414 252.924 59.1095C252.96 58.4701 253.024 57.5505 253.161 56.4081C253.292 55.0613 253.591 53.7362 254.052 52.4636C254.134 52.2767 254.235 52.0986 254.354 51.9319C254.488 51.7563 254.663 51.6158 254.864 51.5224C255.208 51.3356 255.582 51.1344 255.905 50.9261L258.061 49.5969C258.434 49.367 258.779 49.1443 259.167 48.9215L259.239 48.8784L259.311 48.9143C259.456 48.9846 259.584 49.0851 259.687 49.209C259.79 49.3329 259.865 49.4774 259.907 49.6328C259.991 49.8973 260.023 50.1754 260.001 50.4519C259.972 51.1868 259.718 51.895 259.273 52.4809C258.828 53.0669 258.215 53.5022 257.515 53.7281L257.615 53.5413C257.938 54.8916 258.006 56.2902 257.817 57.6654C257.749 58.0486 257.618 58.4178 257.429 58.7575C257.356 58.8732 257.266 58.9773 257.163 59.0664C257.208 58.9397 257.268 58.8191 257.342 58.7072C257.496 58.3673 257.597 58.0065 257.644 57.6367C257.761 56.2888 257.649 54.9309 257.314 53.6204L257.278 53.4839L257.414 53.4336C258.217 53.125 258.882 52.5386 259.289 51.7811C259.496 51.3619 259.614 50.9044 259.634 50.4375C259.674 50.2234 259.654 50.0024 259.575 49.7994C259.496 49.5963 259.363 49.4192 259.189 49.288H259.333C258.995 49.4819 258.614 49.7262 258.262 49.949C257.544 50.4088 256.825 50.8542 256.107 51.2781C255.755 51.4865 255.388 51.6877 255.05 51.8745C254.892 51.9411 254.753 52.0475 254.648 52.1834C254.539 52.3237 254.449 52.4784 254.382 52.6432C253.917 53.8801 253.601 55.1681 253.441 56.4799C253.269 57.6079 253.161 58.5276 253.082 59.1598C253.058 59.4801 253.005 59.7976 252.924 60.1082Z" fill="#FF9A6C"/>
<path d="M197.895 125.633C197.895 125.633 198.778 161.794 197.895 166.205C197.011 170.617 195.524 188.845 195.524 202.366C195.524 215.888 196.091 218.97 196.091 218.97H209.218C209.218 218.97 210.152 193.263 214.204 178.376C217.969 164.56 222.301 143.552 222.301 134.442V122.105H199.073L197.895 125.633Z" fill="#263238"/>
<path d="M229.652 122.105C229.652 122.105 243.425 160.328 244.309 171.501C245.192 182.673 245.228 218.97 245.228 218.97H231.635L229.824 175.143L219.363 146.735V122.105H229.652Z" fill="#263238"/>
<path d="M222.302 142.69C222.275 143.039 222.218 143.386 222.13 143.725C221.993 144.443 221.807 145.406 221.584 146.541C221.117 148.991 220.492 152.246 219.809 155.838C219.127 159.431 218.444 162.757 217.92 165.121C217.654 166.307 217.424 167.277 217.251 167.916C217.181 168.263 217.078 168.602 216.943 168.929C216.968 168.577 217.026 168.229 217.115 167.887C217.251 167.169 217.438 166.206 217.654 165.071C218.128 162.621 218.746 159.366 219.436 155.766C220.125 152.167 220.801 148.855 221.325 146.491C221.591 145.305 221.821 144.335 221.993 143.696C222.061 143.351 222.164 143.014 222.302 142.69Z" fill="#455A64"/>
<path d="M234.868 138.983H237.778C237.778 138.983 238.446 128.924 236.765 122.106C235.083 115.287 226.49 85.6932 226.49 85.6932L216.978 70.0016L211.877 67.7312L228.631 123.909L234.868 138.983Z" fill="#455A64"/>
<path opacity="0.3" d="M224.263 90.1765C224.263 90.1765 233.072 116.279 234.53 123.119C235.544 128.365 236.283 133.66 236.743 138.983H234.861L227.942 120.762C227.942 120.762 220.757 91.7931 221.066 91.8649C221.375 91.9368 224.263 90.1765 224.263 90.1765Z" fill="black"/>
<path d="M195.883 67.0987L196.673 62.0693L210.727 68.3776V65.3384L216.934 75.6989L230.586 114.497C231.024 115.697 231.556 119.677 230.758 120.676L229.644 122.113L214.844 124.031L200.812 73.3423L195.883 67.0987Z" fill="#E0E0E0"/>
<path opacity="0.3" d="M198.212 142.69C198.212 142.69 217.007 144.795 220.858 143.265C221.968 142.812 222.932 142.062 223.644 141.098C224.357 140.134 224.79 138.992 224.896 137.797C224.896 137.797 226.778 124.455 226.649 121.51C226.432 118.785 226.024 116.08 225.428 113.412L198.176 140.334L198.212 142.69Z" fill="black"/>
<path d="M212.365 72.8969C212.365 72.8969 218.788 94.7674 218.738 94.9254C218.688 95.0835 225.858 117.306 225.858 117.306L227.295 110.617L217.308 77.2868L213.292 72.3652L212.365 72.8969Z" fill="#5E77EE"/>
<path d="M191.709 69.1682C185.12 73.1845 184.783 79.4137 187.714 86.5553C188.195 87.7408 189.151 89.7741 189.783 91.1536C192.614 97.1816 198.498 107.018 198.498 109.317C198.498 114.734 193.649 139.859 193.649 139.859C193.649 139.859 219.931 143.049 222.301 140.578C224.672 138.106 226.497 122.616 225.736 115.69C224.895 108.045 220.958 95.1124 219.363 90.3273C218.4 87.4534 215.232 80.2687 211.46 75.5842C208.633 72.0686 205.27 69.0207 201.494 66.5529L195.897 62.8887L194.748 66.7685C193.815 67.6654 192.797 68.4691 191.709 69.1682Z" fill="#455A64"/>
<path d="M217.287 70.8853C217.833 70.8853 241.852 78.7311 240.458 78.1563L241.104 77.4809L249.726 64.4333L257.629 69.1106C257.629 69.1106 249.82 84.0622 248.526 86.4116C247.908 87.561 246.987 88.5202 245.865 89.186C244.742 89.8519 243.459 90.1992 242.153 90.1908C240.393 90.1908 225.348 87.6689 225.348 87.6689L217.287 70.8853Z" fill="#455A64"/>
<path d="M226.951 61.9044L228.811 58.6138L237.175 63.3773L235.874 66.9984L226.951 61.9044Z" fill="#E0E0E0"/>
<path opacity="0.3" d="M190.157 86.7781C190.157 86.7781 206.302 95.7519 211.439 96.9662C216.576 98.1804 222.302 99.797 222.302 99.797L219.996 92.4541L205.964 83.9258L190.157 86.7781Z" fill="black"/>
<path d="M190.157 86.7784C189.956 86.6275 214.377 95.3139 219.356 93.7476C224.335 92.1813 225.944 87.2813 227.726 84.2134C230.981 78.6596 236.75 67.6094 236.75 67.6094L226.418 61.6963L216.13 78.9398C216.13 78.9398 197.916 71.4245 196.242 70.9359C194.568 70.4474 189.388 69.772 186.859 75.8288C184.028 82.5322 190.157 86.7784 190.157 86.7784Z" fill="#455A64"/>
<path d="M190.157 86.778C190.09 86.749 190.027 86.7103 189.971 86.6631C189.856 86.5768 189.683 86.4403 189.468 86.2535C188.838 85.7053 188.273 85.0856 187.786 84.407C186.984 83.3205 186.434 82.0687 186.177 80.7428C186.101 80.3397 186.055 79.9314 186.041 79.5214C186.041 79.0975 186.084 78.6592 186.098 78.1994C186.112 77.7396 186.256 77.2941 186.4 76.8343C186.544 76.3619 186.716 75.8988 186.917 75.4476C187.34 74.4598 187.928 73.5512 188.656 72.7605C189.46 71.8979 190.468 71.2507 191.587 70.8781C192.798 70.4783 194.087 70.3772 195.345 70.5835C196.004 70.687 196.648 70.8704 197.263 71.1296L199.167 71.848C204.297 73.867 210.009 76.202 216.166 78.7311L215.951 78.8029L226.232 61.5594L226.326 61.4014L226.484 61.4948L230.213 63.6502L236.844 67.4366L237.002 67.5228L236.916 67.6809C234.883 71.5606 232.878 75.3183 230.91 78.9035C229.918 80.6997 228.941 82.4528 227.949 84.1556C226.958 85.8584 226.196 87.6043 225.162 89.1849C224.196 90.7626 222.869 92.0877 221.289 93.0503C220.523 93.5024 219.688 93.8253 218.818 94.0059C217.97 94.103 217.114 94.103 216.267 94.0059C213.233 93.6119 210.231 92.9972 207.286 92.1666C201.883 90.7296 197.615 89.2927 194.684 88.3443C191.752 87.3959 190.157 86.778 190.157 86.778C190.261 86.7872 190.363 86.8114 190.459 86.8499L191.336 87.1229L194.72 88.215C197.673 89.1418 201.948 90.5141 207.343 91.9223C210.28 92.7351 213.272 93.333 216.296 93.7113C217.119 93.8048 217.951 93.8048 218.774 93.7113C219.604 93.53 220.4 93.2171 221.131 92.7845C222.664 91.8414 223.95 90.5457 224.882 89.0053C225.902 87.4606 226.663 85.7003 227.655 83.976C228.646 82.2516 229.609 80.5273 230.593 78.7382C232.555 75.1459 234.559 71.3882 236.586 67.5084L236.665 67.7599L230.011 63.9879L226.29 61.8325L226.541 61.7678C222.906 67.8317 219.428 73.6514 216.238 79.0113L216.159 79.1406L216.023 79.0831C209.894 76.5469 204.146 74.1975 199.059 72.1498L197.163 71.4313C196.567 71.1729 195.942 70.9895 195.302 70.8853C194.086 70.682 192.839 70.7732 191.666 71.1511C190.585 71.5073 189.61 72.1271 188.828 72.9545C188.116 73.7178 187.536 74.5943 187.111 75.5482C186.911 75.9896 186.738 76.4432 186.594 76.9061C186.45 77.3516 186.393 77.8114 186.292 78.2425C186.191 78.6736 186.199 79.1119 186.22 79.5286C186.231 79.931 186.271 80.3321 186.342 80.7284C186.583 82.0359 187.108 83.2745 187.88 84.3567C188.353 85.0377 188.9 85.6642 189.511 86.2248C189.712 86.4188 189.877 86.5553 189.992 86.6487L190.157 86.778Z" fill="#263238"/>
<path d="M201.897 123.585L204.16 119.001L219.995 119.282L218.235 124.024L201.897 123.585Z" fill="#455A64"/>
<path d="M201.897 123.586H203.183H206.631C209.556 123.629 213.601 123.686 218.242 123.801L218.062 123.923C218.601 122.486 219.162 120.956 219.744 119.397L219.823 119.181L219.995 119.433C213.615 119.318 207.925 119.196 204.189 119.088L204.296 119.023L202.558 122.336C202.364 122.702 202.206 122.997 202.083 123.241C202.029 123.353 201.966 123.461 201.897 123.564C201.897 123.564 201.897 123.471 202.019 123.27C202.141 123.068 202.27 122.738 202.436 122.372L204.052 118.93V118.858H204.146C207.91 118.858 213.601 118.959 219.952 119.074H220.218L220.124 119.318L220.045 119.534L218.364 124.053L218.314 124.175H218.185C213.457 124.038 209.333 123.88 206.43 123.765L203.039 123.629L202.148 123.586C202.064 123.592 201.98 123.592 201.897 123.586Z" fill="#263238"/>
<path d="M212.466 76.8991C212.416 76.9925 208.407 74.7868 203.507 71.9776C198.607 69.1683 194.684 66.8189 194.734 66.7327C194.785 66.6465 198.794 68.845 203.694 71.6543C208.594 74.4635 212.524 76.8129 212.466 76.8991Z" fill="#263238"/>
<path d="M217.941 111.472C217.941 111.572 214.125 111.414 209.427 111.113C204.728 110.811 200.92 110.488 200.927 110.394C200.934 110.301 204.749 110.452 209.448 110.753C214.147 111.055 217.948 111.371 217.941 111.472Z" fill="#263238"/>
<path d="M250.251 64.7853L251.846 62.0981L258.168 65.7911L256.94 68.7081L250.251 64.7853Z" fill="#E0E0E0"/>
<path d="M242.111 83.6739C241.415 82.9752 240.887 82.1281 240.566 81.196C240.245 80.2639 240.139 79.2712 240.257 78.2925C240.365 78.2925 240.401 79.5857 240.918 81.073C241.435 82.5602 242.225 83.6092 242.111 83.6739Z" fill="#263238"/>
<path d="M226.642 86.2393C227.253 87.6929 227.75 89.1919 228.129 90.7226C228.628 92.2201 229.005 93.7554 229.257 95.3136C228.649 93.859 228.151 92.3603 227.77 90.8303C227.271 89.3328 226.894 87.7975 226.642 86.2393Z" fill="#263238"/>
<path d="M216.942 84.3638C216.301 83.6161 215.876 82.7081 215.713 81.7371C215.55 80.7662 215.654 79.7691 216.015 78.853C215.968 79.7947 215.992 80.7386 216.087 81.6766C216.303 82.5928 216.589 83.4911 216.942 84.3638Z" fill="#263238"/>
<path opacity="0.3" d="M203.169 123.614L202.888 125.001L219.284 125.461L219.995 119.282L218.235 124.024L203.169 123.614Z" fill="black"/>
<path d="M210.382 71.4312L210.555 71.6181L212.365 72.8969L213.271 72.3868L212.682 70.3823L210.77 68.9453L210.382 71.4312Z" fill="#5E77EE"/>
<path d="M212.825 68.9451C213.021 69.5065 213.158 70.0868 213.234 70.6767L213.292 70.9856L213.026 70.7988C212.394 70.3534 211.589 69.7642 210.662 69.0888L210.949 68.9739C210.863 69.5415 210.77 70.1378 210.676 70.7557C210.612 71.1293 210.554 71.4742 210.504 71.8406L210.461 72.0921L210.238 71.9771C208.859 71.3018 207.659 70.6982 206.804 70.2456C206.329 70.0335 205.879 69.771 205.46 69.4624C205.959 69.5967 206.441 69.7871 206.897 70.03C207.781 70.418 209.009 70.9856 210.389 71.6466L210.13 71.7831L210.296 70.6982C210.396 70.0803 210.49 69.484 210.583 68.9236L210.633 68.6218L210.87 68.8014C211.776 69.5199 212.573 70.1163 213.177 70.5976L212.968 70.7198C212.861 70.1345 212.813 69.54 212.825 68.9451Z" fill="#263238"/>
</g>
<defs>
<clipPath id="clip0_862_5439">
<rect width="400" height="400" fill="white"/>
</clipPath>
</defs>
</svg>
