<svg width="30" height="30" viewBox="0 0 30 30" fill="none" xmlns="http://www.w3.org/2000/svg">
<g id="color picker" clip-path="url(#clip0_446_5366)">
<g id="Color Picker">
<path id="Vector" d="M26.875 16.25C26.8775 17.974 26.5392 19.6815 25.8795 21.2743C25.2199 22.8671 24.2519 24.3138 23.0312 25.5312L18.1687 20.6687C19.3409 19.4969 19.9996 17.9075 20 16.25H26.875Z" fill="#FE9661"/>
<path id="Vector_2" d="M26.875 16.25H20C19.9996 14.5925 19.3409 13.0031 18.1687 11.8313L23.0312 6.96875C24.2519 8.18618 25.2199 9.63289 25.8795 11.2257C26.5392 12.8185 26.8775 14.526 26.875 16.25Z" fill="#EB7F58"/>
<path id="Vector_3" d="M13.75 22.5V29.375C12.026 29.3775 10.3185 29.0392 8.7257 28.3795C7.13288 27.7199 5.68618 26.7519 4.46875 25.5312L9.33125 20.6687C10.5031 21.8409 12.0925 22.4996 13.75 22.5Z" fill="#FFB369"/>
<path id="Vector_4" d="M23.0312 25.5312C21.8138 26.7519 20.3671 27.7199 18.7743 28.3795C17.1815 29.0392 15.474 29.3775 13.75 29.375V22.5C15.4075 22.4996 16.9969 21.8409 18.1687 20.6687L23.0312 25.5312Z" fill="url(#paint0_linear_446_5366)"/>
<path id="Vector_5" d="M9.33126 20.6687L4.46876 25.5312C3.24808 24.3138 2.28009 22.8671 1.62044 21.2743C0.960794 19.6815 0.6225 17.974 0.625014 16.25H7.50001C7.50037 17.9075 8.15908 19.4969 9.33126 20.6687Z" fill="#8AD3FE"/>
<path id="Vector_6" d="M9.33126 11.8313C8.15908 13.0031 7.50037 14.5925 7.50001 16.25H0.625014C0.6225 14.526 0.960794 12.8185 1.62044 11.2257C2.28009 9.63289 3.24808 8.18618 4.46876 6.96875L9.33126 11.8313Z" fill="url(#paint1_linear_446_5366)"/>
<path id="Vector_7" d="M13.75 3.12501V10C12.0925 10.0004 10.5031 10.6591 9.33125 11.8313L4.46875 6.96876C5.68618 5.74808 7.13288 4.78009 8.7257 4.12044C10.3185 3.46079 12.026 3.1225 13.75 3.12501Z" fill="#54A5FF"/>
<path id="Vector_8" d="M23.0312 6.96876L18.1687 11.8313C16.9969 10.6591 15.4075 10.0004 13.75 10V3.12501C15.474 3.1225 17.1815 3.46079 18.7743 4.12044C20.3671 4.78009 21.8138 5.74808 23.0312 6.96876Z" fill="#4795EA"/>
<path id="Vector_9" d="M20.0022 6.25319L15.627 10.6284L19.379 14.3805L23.7543 10.0053L20.0022 6.25319Z" fill="#D7E9F7"/>
<path id="Vector_10" d="M13.125 13.125C12.7858 13.4721 12.5482 13.9056 12.438 14.3783C12.3278 14.851 12.3492 15.3449 12.5 15.8062C12.3286 15.8987 12.1812 16.03 12.0695 16.1896C11.9579 16.3492 11.8851 16.5326 11.8569 16.7253C11.8287 16.918 11.846 17.1146 11.9072 17.2995C11.9685 17.4844 12.0722 17.6524 12.2099 17.7901C12.3476 17.9278 12.5156 18.0314 12.7004 18.0927C12.8853 18.154 13.0819 18.1712 13.2746 18.143C13.4673 18.1149 13.6508 18.042 13.8103 17.9304C13.9699 17.8187 14.1012 17.6713 14.1937 17.5C14.6549 17.6521 15.1491 17.6743 15.6221 17.564C16.0951 17.4538 16.5286 17.2154 16.875 16.875L23.125 10.625L22.0875 10.8312C20.7104 11.1161 19.2896 11.1161 17.9125 10.8312C17.1593 10.6828 16.3926 10.6137 15.625 10.625L13.125 13.125Z" fill="url(#paint2_linear_446_5366)"/>
<path id="Vector_11" d="M29.375 3.74997C29.3715 4.56979 29.0461 5.35541 28.4687 5.93747L26.25 8.12497L21.875 3.74997L24.0937 1.53122C24.5338 1.11159 25.0868 0.82946 25.6848 0.719431C26.2829 0.609401 26.9001 0.676247 27.4607 0.911776C28.0213 1.1473 28.501 1.54128 28.8411 2.04542C29.1811 2.54955 29.3667 3.14194 29.375 3.74997Z" fill="url(#paint3_linear_446_5366)"/>
<path id="Vector_12" d="M20.8102 2.93872L19.1927 4.55623C18.9486 4.8003 18.9486 5.19603 19.1927 5.44011L24.5578 10.8053C24.8019 11.0494 25.1977 11.0494 25.4417 10.8053L27.0592 9.18777C27.3033 8.9437 27.3033 8.54797 27.0592 8.30389L21.6941 2.93872C21.45 2.69464 21.0543 2.69464 20.8102 2.93872Z" fill="url(#paint4_linear_446_5366)"/>
<path id="Vector_13" d="M13.75 25.625C15.4759 25.625 16.875 24.2259 16.875 22.5C16.875 20.7741 15.4759 19.375 13.75 19.375C12.0241 19.375 10.625 20.7741 10.625 22.5C10.625 24.2259 12.0241 25.625 13.75 25.625Z" fill="#F0F7FC"/>
<path id="Vector_14" d="M13.75 24.375C14.7855 24.375 15.625 23.5355 15.625 22.5C15.625 21.4645 14.7855 20.625 13.75 20.625C12.7145 20.625 11.875 21.4645 11.875 22.5C11.875 23.5355 12.7145 24.375 13.75 24.375Z" fill="url(#paint5_linear_446_5366)"/>
</g>
</g>
<defs>
<linearGradient id="paint0_linear_446_5366" x1="13.75" y1="25.025" x2="23.0312" y2="25.025" gradientUnits="userSpaceOnUse">
<stop stop-color="#FE9661"/>
<stop offset="1" stop-color="#FFB369"/>
</linearGradient>
<linearGradient id="paint1_linear_446_5366" x1="4.97501" y1="16.25" x2="4.97501" y2="6.96875" gradientUnits="userSpaceOnUse">
<stop stop-color="#54A5FF"/>
<stop offset="1" stop-color="#8AD3FE"/>
</linearGradient>
<linearGradient id="paint2_linear_446_5366" x1="13.5187" y1="18.6562" x2="20.25" y2="8.68122" gradientUnits="userSpaceOnUse">
<stop stop-color="#54A5FF"/>
<stop offset="1" stop-color="#8AD3FE"/>
</linearGradient>
<linearGradient id="paint3_linear_446_5366" x1="24.0625" y1="5.93747" x2="28.4688" y2="1.53122" gradientUnits="userSpaceOnUse">
<stop stop-color="#FE9661"/>
<stop offset="1" stop-color="#FFB369"/>
</linearGradient>
<linearGradient id="paint4_linear_446_5366" x1="21.8784" y1="8.12046" x2="24.3784" y2="5.62046" gradientUnits="userSpaceOnUse">
<stop stop-color="#FE9661"/>
<stop offset="1" stop-color="#FFB369"/>
</linearGradient>
<linearGradient id="paint5_linear_446_5366" x1="15.625" y1="22.5" x2="11.875" y2="22.5" gradientUnits="userSpaceOnUse">
<stop stop-color="#FE9661"/>
<stop offset="1" stop-color="#FFB369"/>
</linearGradient>
<clipPath id="clip0_446_5366">
<rect width="30" height="30" fill="white"/>
</clipPath>
</defs>
</svg>
