<svg width="20" height="20" viewBox="0 0 20 20" fill="none" xmlns="http://www.w3.org/2000/svg">
<g id="Doc">
<path id="Vector" fill-rule="evenodd" clip-rule="evenodd" d="M12.4999 4.16667H14.9999C15.4419 4.16667 15.8659 4.34226 16.1784 4.65482C16.491 4.96738 16.6666 5.39131 16.6666 5.83333V15.8333C16.6666 16.2754 16.491 16.6993 16.1784 17.0118C15.8659 17.3244 15.4419 17.5 14.9999 17.5H4.99992C4.55789 17.5 4.13397 17.3244 3.82141 17.0118C3.50885 16.6993 3.33325 16.2754 3.33325 15.8333V5.83333C3.33325 5.39131 3.50885 4.96738 3.82141 4.65482C4.13397 4.34226 4.55789 4.16667 4.99992 4.16667H7.49992C7.49992 3.50362 7.76331 2.86774 8.23215 2.3989C8.70099 1.93006 9.33688 1.66667 9.99992 1.66667C10.663 1.66667 11.2988 1.93006 11.7677 2.3989C12.2365 2.86774 12.4999 3.50362 12.4999 4.16667ZM10.8333 4.16667C10.8333 4.38768 10.7455 4.59964 10.5892 4.75592C10.4329 4.9122 10.2209 5 9.99992 5C9.77891 5 9.56694 4.9122 9.41066 4.75592C9.25438 4.59964 9.16659 4.38768 9.16659 4.16667C9.16659 3.94565 9.25438 3.73369 9.41066 3.57741C9.56694 3.42113 9.77891 3.33333 9.99992 3.33333C10.2209 3.33333 10.4329 3.42113 10.5892 3.57741C10.7455 3.73369 10.8333 3.94565 10.8333 4.16667ZM4.99992 7.5C4.99992 7.27899 5.08772 7.06702 5.244 6.91074C5.40028 6.75446 5.61224 6.66667 5.83325 6.66667H14.1666C14.3876 6.66667 14.5996 6.75446 14.7558 6.91074C14.9121 7.06702 14.9999 7.27899 14.9999 7.5C14.9999 7.72101 14.9121 7.93297 14.7558 8.08926C14.5996 8.24554 14.3876 8.33333 14.1666 8.33333H5.83325C5.61224 8.33333 5.40028 8.24554 5.244 8.08926C5.08772 7.93297 4.99992 7.72101 4.99992 7.5ZM5.83325 10C5.61224 10 5.40028 10.0878 5.244 10.2441C5.08772 10.4004 4.99992 10.6123 4.99992 10.8333C4.99992 11.0543 5.08772 11.2663 5.244 11.4226C5.40028 11.5789 5.61224 11.6667 5.83325 11.6667H14.1666C14.3876 11.6667 14.5996 11.5789 14.7558 11.4226C14.9121 11.2663 14.9999 11.0543 14.9999 10.8333C14.9999 10.6123 14.9121 10.4004 14.7558 10.2441C14.5996 10.0878 14.3876 10 14.1666 10H5.83325ZM5.83325 13.3333C5.61224 13.3333 5.40028 13.4211 5.244 13.5774C5.08772 13.7337 4.99992 13.9457 4.99992 14.1667C4.99992 14.3877 5.08772 14.5996 5.244 14.7559C5.40028 14.9122 5.61224 15 5.83325 15H8.33325C8.55427 15 8.76623 14.9122 8.92251 14.7559C9.07879 14.5996 9.16659 14.3877 9.16659 14.1667C9.16659 13.9457 9.07879 13.7337 8.92251 13.5774C8.76623 13.4211 8.55427 13.3333 8.33325 13.3333H5.83325Z" fill="black"/>
</g>
</svg>
