<svg width="20" height="20" viewBox="0 0 20 20" fill="none" xmlns="http://www.w3.org/2000/svg">
<g id="Graph">
<path id="Vector" d="M5.94289 9.94286H3.62861C3.20003 9.94286 2.85718 10.2857 2.85718 10.7143V15.4C2.85718 15.8286 3.20003 16.1714 3.62861 16.1714H5.94289C6.37146 16.1714 6.71432 15.8286 6.71432 15.4V10.7143C6.71432 10.2857 6.37146 9.94286 5.94289 9.94286ZM11.1715 8.14286H8.85718C8.42861 8.14286 8.08575 8.48572 8.08575 8.91429V15.4C8.08575 15.8286 8.42861 16.1714 8.85718 16.1714H11.1715C11.6 16.1714 11.9429 15.8286 11.9429 15.4V8.91429C11.9143 8.48572 11.5715 8.14286 11.1715 8.14286ZM16.3715 3.85715H14.0572C13.6286 3.85715 13.2857 4.2 13.2857 4.62858V15.4C13.2857 15.8286 13.6286 16.1714 14.0572 16.1714H16.3715C16.8 16.1714 17.1429 15.8286 17.1429 15.4V4.6C17.1429 4.2 16.8 3.85715 16.3715 3.85715Z" fill="black"/>
</g>
</svg>
