<svg width="18" height="19" viewBox="0 0 18 19" fill="none" xmlns="http://www.w3.org/2000/svg">
<g id="icon">
<path id="icon_2" fill-rule="evenodd" clip-rule="evenodd" d="M11.7927 10.7264L17.5386 16.7111L16.0444 18.2673L10.2985 12.2827C9.22556 13.0869 7.93197 13.5778 6.51806 13.5778C2.91808 13.5778 0 10.5384 0 6.78889C0 3.03933 2.91808 0 6.51806 0C10.118 0 13.0361 3.03933 13.0361 6.78889C13.0361 8.26156 12.5648 9.60889 11.7927 10.7264ZM6.51806 2.08889C4.02114 2.08889 2.00556 4.18822 2.00556 6.78889C2.00556 9.38956 4.02114 11.4889 6.51806 11.4889C9.01497 11.4889 11.0306 9.38956 11.0306 6.78889C11.0306 4.18822 9.01497 2.08889 6.51806 2.08889Z" fill="black"/>
</g>
</svg>
