<svg width="147" height="148" viewBox="0 0 147 148" fill="none" xmlns="http://www.w3.org/2000/svg">
<g id="Frame 37">
<g id="freepik--background-complete--inject-5">
<path id="Vector" d="M140.197 45.6361C140.416 44.0461 138.152 42.7073 136.447 42.5706C135.637 42.507 134.794 42.631 134.024 42.3607C132.358 41.782 131.69 39.6291 130.065 38.9422C128.85 38.4302 127.448 38.885 126.271 39.4796C125.095 40.0743 123.928 40.8184 122.611 40.9043C121.466 40.9774 120.22 40.5513 119.218 41.111C118.471 41.5276 118.08 42.383 117.393 42.895C116.706 43.4069 115.841 43.4992 115.005 43.531C114.168 43.5628 113.307 43.585 112.543 43.9316C111.78 44.2783 111.154 45.086 111.313 45.9064L140.197 45.6361Z" fill="#EBEBEB"/>
<path id="Vector_2" d="M70.313 30.8969C70.5356 29.3069 68.2683 27.9713 66.567 27.8313C65.7561 27.7677 64.9102 27.8918 64.1438 27.6246C62.4743 27.0427 61.8097 24.8898 60.1847 24.203C58.9668 23.691 57.5676 24.1457 56.391 24.7404C55.2144 25.335 54.0473 26.0792 52.7276 26.165C51.5828 26.2382 50.3394 25.812 49.3377 26.3717C48.5904 26.7883 48.1993 27.6437 47.5124 28.1557C46.8255 28.6677 45.9606 28.7599 45.1242 28.7917C44.2879 28.8235 43.4229 28.8458 42.6629 29.1956C41.9029 29.5454 41.2732 30.3467 41.4322 31.1672L70.313 30.8969Z" fill="#EBEBEB"/>
<path id="Vector_3" d="M39.1871 81.1981C39.4066 79.5922 37.1424 78.2693 35.4379 78.1326C34.627 78.069 33.7811 78.193 33.0148 77.9227C31.3484 77.344 30.6806 75.1911 29.0557 74.5042C27.8377 73.9923 26.4385 74.447 25.2619 75.0417C24.0853 75.6363 22.9055 76.3645 21.6017 76.4472C20.4538 76.5235 19.2104 76.0974 18.2087 76.6571C17.4614 77.0737 17.0702 77.9291 16.3834 78.4411C15.6965 78.953 14.8315 79.0453 13.9952 79.0771C13.1588 79.1089 12.2939 79.1311 11.5339 79.4778C10.7738 79.8244 10.1442 80.6321 10.3032 81.4525L39.1871 81.1981Z" fill="#EBEBEB"/>
<path id="Vector_4" d="M97.0505 59.4788C97.1872 58.4961 95.8007 57.6884 94.7609 57.6057C94.2648 57.5644 93.7496 57.6407 93.279 57.4785C92.2614 57.1224 91.8544 55.8059 90.859 55.3861C90.1181 55.0681 89.269 55.3543 88.5408 55.7041C87.8126 56.0539 87.1098 56.5214 86.3148 56.5722C85.6152 56.6168 84.8552 56.3592 84.2414 56.6994C83.7867 56.9538 83.5482 57.4817 83.1252 57.7902C82.6886 58.0612 82.1826 58.1993 81.6688 58.1877C81.1565 58.1734 80.646 58.2565 80.1647 58.4325C79.9257 58.5251 79.7232 58.6925 79.5873 58.9098C79.4514 59.127 79.3896 59.3824 79.411 59.6378L97.0505 59.4788Z" fill="#EBEBEB"/>
</g>
<g id="freepik--Arrows--inject-5">
<path id="Vector_5" d="M99.2446 123.794L123.285 147.644L127.979 147.631L129.649 123.794H99.2446Z" fill="#E0E0E0"/>
<path id="Vector_6" d="M118.792 126.052L94.5669 147.644L111.488 147.619L125.75 135.624L118.792 126.052Z" fill="#E0E0E0"/>
<path id="Vector_7" d="M116.515 64.3472L146.375 92.0291L146.9 63.3169L116.515 64.3472Z" fill="#E0E0E0"/>
<path id="Vector_8" d="M136.632 65.5428L55.8694 147.631H71.7821L143.911 74.873L136.632 65.5428Z" fill="#E0E0E0"/>
<path id="Vector_9" d="M31.8318 95.9406L60.738 124.618L62.2358 95.9406H31.8318Z" fill="#E0E0E0"/>
<path id="Vector_10" d="M51.8976 97.8167L0 147.631H16.7236L58.8554 107.388L51.8976 97.8167Z" fill="#E0E0E0"/>
<path id="Vector_11" d="M57.0333 86.0952L98.297 127.035V86.0952H57.0333Z" fill="#5E77EE"/>
<path id="Vector_12" d="M84.2604 87.0175C83.3255 87.7648 23.9231 147.631 23.9231 147.631H49.5157L96.214 100.656L84.2604 87.0175Z" fill="#5E77EE"/>
</g>
<g id="freepik--Sun--inject-5">
<path id="Vector_13" d="M29.2217 20.2881C31.3062 19.4324 32.3023 17.0488 31.4465 14.9644C30.5908 12.8799 28.2072 11.8838 26.1228 12.7396C24.0383 13.5953 23.0422 15.9789 23.898 18.0633C24.7537 20.1478 27.1373 21.1439 29.2217 20.2881Z" fill="#FFD954"/>
<path id="Vector_14" d="M27.0905 25.6403C27.0434 25.0809 27.0264 24.5193 27.0396 23.9581C27.0243 23.397 27.0392 22.8354 27.0842 22.2759C27.1064 22.2759 27.1255 23.0295 27.1255 23.9581C27.1255 24.8867 27.1128 25.6403 27.0905 25.6403Z" fill="#FFD954"/>
<path id="Vector_15" d="M24.7373 21.325C24.7596 21.325 24.3748 22.0405 23.8819 22.8959C23.389 23.7513 22.9692 24.435 22.9501 24.4223C22.9311 24.4096 23.3127 23.71 23.8056 22.8514C24.2985 21.9928 24.7182 21.3123 24.7373 21.325Z" fill="#FFD954"/>
<path id="Vector_16" d="M22.3236 19.8241C22.0243 20.1156 21.7056 20.3865 21.3696 20.635C21.0509 20.9057 20.7141 21.1543 20.3616 21.3791C20.6615 21.0882 20.9802 20.8173 21.3156 20.5682C21.6346 20.2979 21.9714 20.0493 22.3236 19.8241Z" fill="#FFD954"/>
<path id="Vector_17" d="M31.1736 23.9835C31.1265 23.8488 31.0904 23.7106 31.0655 23.5701C31.0082 23.3125 30.9255 22.9563 30.8206 22.5684C30.7157 22.1804 30.6107 21.8338 30.5312 21.5826C30.4826 21.4479 30.4443 21.3097 30.4167 21.1692C30.4897 21.2932 30.5473 21.4256 30.5885 21.5635C30.711 21.8855 30.8172 22.2134 30.9065 22.5461C31.0114 22.9373 31.0845 23.2966 31.1291 23.5574C31.1616 23.697 31.1766 23.8401 31.1736 23.9835Z" fill="#FFD954"/>
<path id="Vector_18" d="M35.3076 21.0451C34.8872 20.7354 34.4848 20.4021 34.1023 20.0466C33.6996 19.7149 33.3153 19.3614 32.9512 18.9877C33.372 19.2956 33.7744 19.628 34.1564 19.983C34.5587 20.3163 34.943 20.6709 35.3076 21.0451Z" fill="#FFD954"/>
<path id="Vector_19" d="M36.8976 17.0097C36.733 16.9972 36.5694 16.9739 36.4079 16.9398C36.0899 16.8889 35.6861 16.8221 35.2218 16.7712C34.7575 16.7203 34.3377 16.6854 34.0293 16.6663C33.864 16.6648 33.6992 16.65 33.5364 16.6218C33.7008 16.6001 33.867 16.5947 34.0325 16.6059C34.4332 16.612 34.8333 16.6385 35.2313 16.6854C35.6297 16.7302 36.0256 16.7949 36.4175 16.8793C36.5821 16.9037 36.7433 16.9474 36.8976 17.0097Z" fill="#FFD954"/>
<path id="Vector_20" d="M36.8976 13.0412C36.8976 13.0634 36.0199 13.2987 34.926 13.5659C33.8321 13.833 32.9353 14.0301 32.9321 14.0047C32.929 13.9793 33.8098 13.7471 34.9037 13.48C35.9977 13.2129 36.8976 13.0157 36.8976 13.0412Z" fill="#FFD954"/>
<path id="Vector_21" d="M32.2802 8.41424C32.2993 8.41424 31.8763 9.10113 31.3262 9.92157C30.776 10.742 30.3308 11.3939 30.3118 11.3812C30.6024 10.8619 30.9208 10.3587 31.2658 9.87386C31.8095 9.0566 32.2611 8.40152 32.2802 8.41424Z" fill="#FFD954"/>
<path id="Vector_22" d="M27.7043 7.44751C27.7168 7.63492 27.7168 7.82296 27.7043 8.01037C27.7043 8.35381 27.7043 8.83081 27.7043 9.35869C27.7043 9.88657 27.7043 10.3636 27.7202 10.7102C27.7327 10.8965 27.7327 11.0835 27.7202 11.2699C27.6848 11.0853 27.6657 10.8981 27.6629 10.7102C27.6438 10.3667 27.6248 9.88657 27.6248 9.35869C27.6248 8.83081 27.6248 8.35381 27.6597 8.00719C27.6583 7.81969 27.6732 7.63242 27.7043 7.44751Z" fill="#FFD954"/>
<path id="Vector_23" d="M24.238 11.7659C23.895 11.2863 23.5766 10.7896 23.284 10.2777C22.772 9.44136 22.3777 8.75448 22.3968 8.74176C22.4159 8.72904 22.8483 9.39684 23.3508 10.2332C23.8532 11.0695 24.2571 11.7532 24.238 11.7659Z" fill="#FFD954"/>
<path id="Vector_24" d="M22.1678 13.5245C22.0208 13.5207 21.8746 13.5004 21.7321 13.464C21.4682 13.4068 21.0961 13.3178 20.7082 13.2001C20.3202 13.0824 19.9545 12.9616 19.7033 12.863C19.562 12.8202 19.4264 12.7604 19.2994 12.6849C19.4436 12.7132 19.5851 12.7537 19.7224 12.8058C19.98 12.8885 20.3361 13.0029 20.7304 13.1238C21.1248 13.2446 21.4873 13.34 21.748 13.41C21.8912 13.4349 22.0318 13.4733 22.1678 13.5245Z" fill="#FFD954"/>
<path id="Vector_25" d="M21.2615 16.6599C20.8323 16.7454 20.3978 16.8017 19.9609 16.8285C19.5266 16.886 19.0889 16.9136 18.6508 16.9111C19.0803 16.8275 19.5147 16.7713 19.9514 16.7426C20.3859 16.687 20.8235 16.6594 21.2615 16.6599Z" fill="#FFD954"/>
</g>
<g id="freepik--Clouds--inject-5">
<path id="Vector_26" d="M142.836 106.352C143.005 105.143 141.297 104.148 140.015 104.043C139.405 103.995 138.769 104.088 138.19 103.887C136.934 103.448 136.435 101.827 135.21 101.312C134.295 100.927 133.239 101.27 132.348 101.715C131.458 102.161 130.584 102.723 129.595 102.787C128.733 102.844 127.795 102.523 127.051 102.946C126.488 103.264 126.192 103.9 125.674 104.288C125.135 104.622 124.51 104.792 123.877 104.775C123.244 104.764 122.616 104.872 122.023 105.093C121.451 105.353 120.977 105.961 121.098 106.578L142.836 106.352Z" fill="white"/>
<path id="Vector_27" d="M142.836 106.352H142.731H142.413L141.173 106.374L136.568 106.444L121.091 106.632H121.021V106.565C120.993 106.383 121.004 106.197 121.053 106.019C121.103 105.841 121.189 105.676 121.307 105.535C121.539 105.238 121.853 105.017 122.211 104.899C123.025 104.622 123.867 104.74 124.637 104.596C125.019 104.541 125.381 104.39 125.69 104.158C125.973 103.894 126.237 103.609 126.478 103.305C126.61 103.155 126.761 103.023 126.927 102.911C127.097 102.802 127.285 102.724 127.483 102.682C127.863 102.616 128.251 102.606 128.634 102.653C128.996 102.697 129.361 102.705 129.725 102.679C130.077 102.638 130.422 102.549 130.749 102.412C131.404 102.148 131.995 101.776 132.619 101.496C133.218 101.194 133.882 101.045 134.552 101.063C134.874 101.088 135.186 101.183 135.468 101.34C135.731 101.497 135.971 101.691 136.18 101.916C136.594 102.348 136.918 102.812 137.297 103.188C137.635 103.564 138.089 103.815 138.588 103.903C139.058 103.98 139.519 103.938 139.952 103.97C140.694 104.034 141.405 104.3 142.006 104.74C142.399 105.003 142.691 105.392 142.833 105.843C142.871 106.002 142.877 106.168 142.849 106.33C142.855 106.169 142.838 106.009 142.801 105.853C142.648 105.416 142.355 105.043 141.968 104.79C141.364 104.379 140.659 104.138 139.93 104.094C139.507 104.069 139.046 104.113 138.556 104.04C138.034 103.951 137.557 103.691 137.198 103.302C136.807 102.917 136.479 102.453 136.072 102.03C135.871 101.815 135.641 101.63 135.389 101.48C135.121 101.336 134.826 101.252 134.524 101.232C133.876 101.219 133.236 101.366 132.66 101.661C132.05 101.938 131.458 102.313 130.787 102.584C130.447 102.729 130.089 102.824 129.722 102.867C129.349 102.893 128.974 102.885 128.602 102.841C128.235 102.798 127.864 102.808 127.499 102.87C127.137 102.955 126.812 103.157 126.577 103.445C126.333 103.756 126.065 104.048 125.775 104.317C125.445 104.567 125.057 104.73 124.646 104.79C123.842 104.937 123.009 104.822 122.246 105.086C121.92 105.193 121.632 105.394 121.419 105.662C121.315 105.785 121.238 105.929 121.195 106.084C121.151 106.239 121.14 106.402 121.164 106.562L121.082 106.495L136.505 106.377L141.128 106.355H142.718C142.758 106.351 142.797 106.35 142.836 106.352Z" fill="#263238"/>
<path id="Vector_28" d="M74.517 132.968C74.7364 131.362 72.4722 130.04 70.7678 129.903C69.9569 129.839 69.1142 129.963 68.3446 129.693C66.6783 129.114 66.0105 126.961 64.3855 126.275C63.1676 125.763 61.7684 126.217 60.5918 126.812C59.4152 127.407 58.2481 128.151 56.9316 128.233C55.7836 128.31 54.5402 127.884 53.5385 128.443C52.7912 128.86 52.4001 129.715 51.7132 130.227C51.0263 130.739 50.1614 130.831 49.325 130.863C48.4887 130.895 47.6237 130.917 46.8637 131.264C46.1037 131.611 45.474 132.418 45.633 133.239L74.517 132.968Z" fill="white"/>
<path id="Vector_29" d="M74.5169 132.968H74.3738H73.9509L72.3005 132.997L66.179 133.083L45.633 133.318H45.563V133.251C45.5266 133.013 45.5409 132.77 45.605 132.538C45.6691 132.305 45.7816 132.089 45.9351 131.903C46.2426 131.517 46.6558 131.229 47.1244 131.073C48.1992 130.707 49.3154 130.863 50.3426 130.672C50.8553 130.599 51.341 130.396 51.7545 130.084C52.1333 129.734 52.4841 129.354 52.8039 128.949C52.9764 128.749 53.1754 128.574 53.3954 128.427C53.6192 128.287 53.8655 128.186 54.1236 128.128C54.6258 128.043 55.1377 128.03 55.6436 128.09C56.1269 128.148 56.6146 128.16 57.1001 128.125C57.5695 128.071 58.0289 127.95 58.4643 127.766C59.3388 127.416 60.1243 126.926 60.9479 126.548C61.7363 126.152 62.61 125.957 63.4919 125.979C63.9166 126.008 64.3294 126.132 64.7003 126.341C65.0539 126.546 65.3753 126.803 65.6543 127.101C66.2012 127.671 66.6337 128.291 67.1393 128.793C67.5926 129.293 68.1987 129.628 68.8629 129.747C69.4663 129.806 70.0724 129.835 70.6787 129.833C71.2121 129.874 71.7358 129.998 72.2305 130.202C72.646 130.366 73.04 130.579 73.4039 130.838C73.6931 131.05 73.9483 131.306 74.1608 131.595C74.3183 131.806 74.4338 132.046 74.501 132.301C74.5413 132.457 74.5552 132.62 74.5424 132.781C74.5424 132.892 74.5424 132.943 74.5424 132.943C74.5424 132.943 74.5424 132.883 74.5424 132.774C74.5463 132.617 74.527 132.459 74.4851 132.307C74.2841 131.726 73.896 131.228 73.3817 130.892C73.0209 130.634 72.6301 130.42 72.2178 130.256C71.7291 130.061 71.2131 129.943 70.6882 129.906C70.1253 129.871 69.5116 129.932 68.8629 129.833C68.1702 129.73 67.5308 129.401 67.0439 128.898C66.5256 128.389 66.0899 127.769 65.5525 127.213C65.2839 126.925 64.9755 126.678 64.6367 126.478C64.2815 126.281 63.8874 126.165 63.4823 126.138C62.6193 126.117 61.7646 126.312 60.9956 126.704C60.1847 127.076 59.4056 127.572 58.5088 127.931C58.06 128.12 57.5869 128.246 57.1032 128.303C56.6083 128.337 56.1112 128.327 55.6182 128.272C55.1283 128.212 54.6323 128.224 54.1459 128.307C53.9069 128.361 53.6789 128.456 53.4717 128.586C53.2633 128.725 53.0741 128.891 52.9088 129.079C52.5845 129.491 52.2283 129.877 51.8435 130.234C51.4108 130.567 50.9012 130.786 50.3616 130.87C49.2963 131.064 48.1897 130.914 47.1657 131.264C46.7274 131.408 46.3413 131.678 46.0559 132.04C45.9164 132.207 45.8137 132.401 45.7545 132.611C45.6953 132.82 45.681 133.039 45.7125 133.255L45.6298 133.188L66.1249 133.019L72.2623 132.984H74.3643C74.4149 132.976 74.4658 132.971 74.5169 132.968Z" fill="#263238"/>
<path id="Vector_30" d="M45.1083 57.1286C45.2927 55.7803 43.3911 54.6736 41.9633 54.556C41.2796 54.5019 40.5736 54.6068 39.9281 54.3811C38.5289 53.8945 37.9692 52.0883 36.605 51.5191C35.5842 51.0898 34.4076 51.4745 33.425 51.9706C32.4424 52.4667 31.4597 53.0963 30.3531 53.1663C29.3991 53.2267 28.3497 52.8706 27.4911 53.3412C26.8551 53.691 26.5371 54.4129 25.9583 54.839C25.3796 55.2651 24.6545 55.3446 23.9549 55.3828C23.2553 55.4209 22.5271 55.4273 21.8879 55.7198C21.2488 56.0124 20.7209 56.6738 20.8544 57.3766L45.1083 57.1286Z" fill="white"/>
<path id="Vector_31" d="M45.1083 57.1286H44.9906H44.6345L43.2512 57.1541L38.1155 57.2304L20.864 57.4339H20.7972V57.3671C20.7662 57.1652 20.7785 56.959 20.8333 56.7621C20.8882 56.5653 20.9842 56.3824 21.1152 56.2255C21.3741 55.8993 21.722 55.6552 22.1169 55.5227C23.0232 55.2047 23.9613 55.3478 24.8231 55.1857C25.2507 55.1259 25.6559 54.9572 25.9997 54.6959C26.3172 54.4019 26.6107 54.0829 26.8773 53.7419C27.0192 53.5824 27.1805 53.4414 27.3575 53.3222C27.5455 53.2018 27.7533 53.1157 27.9713 53.0678C28.3917 52.998 28.8199 52.9873 29.2433 53.036C29.6474 53.0845 30.0551 53.0951 30.4612 53.0678C30.8549 53.0206 31.2402 52.9189 31.606 52.7657C32.3374 52.4731 32.9957 52.0597 33.6889 51.7449C34.3544 51.4087 35.0933 51.2437 35.8386 51.2647C36.1981 51.2941 36.5467 51.4027 36.8594 51.5827C37.1522 51.756 37.4189 51.9701 37.6512 52.2187C38.1123 52.6989 38.4716 53.2172 38.8946 53.637C39.2733 54.0572 39.7813 54.3392 40.3383 54.4384C40.8662 54.521 41.3813 54.4765 41.8615 54.5115C42.6888 54.5807 43.4811 54.8767 44.1511 55.3669C44.588 55.6598 44.9121 56.0927 45.0701 56.5944C45.1057 56.727 45.1175 56.8648 45.1051 57.0014C45.1051 57.0937 45.1051 57.135 45.1051 57.135C45.1051 57.135 45.1051 57.0841 45.1051 56.9951C45.1069 56.8629 45.0898 56.7312 45.0542 56.6039C44.8858 56.1169 44.5603 55.6997 44.1288 55.4178C43.4635 54.9476 42.6833 54.6663 41.871 54.6037C41.4004 54.5751 40.8852 54.626 40.3383 54.5433C39.758 54.4422 39.2271 54.1527 38.8278 53.7197C38.3953 53.2936 38.0296 52.7657 37.5749 52.3078C37.3509 52.0667 37.0927 51.8599 36.8085 51.694C36.5149 51.5309 36.1894 51.4333 35.8545 51.4078C35.1326 51.3934 34.4182 51.5573 33.7748 51.8848C33.0942 52.2028 32.4328 52.613 31.6887 52.9151C31.3102 53.0763 30.9109 53.1834 30.5025 53.2331C30.0872 53.2645 29.6697 53.2559 29.256 53.2077C28.8454 53.1583 28.4299 53.1679 28.0221 53.2363C27.6188 53.3308 27.2571 53.5541 26.9918 53.8723C26.7155 54.2178 26.4125 54.541 26.0855 54.839C25.7197 55.1184 25.2883 55.299 24.8326 55.3637C23.9358 55.5291 23.0073 55.4019 22.155 55.6976C21.7901 55.8146 21.4674 56.0357 21.2265 56.3336C21.1105 56.472 21.0252 56.6334 20.9764 56.8072C20.9276 56.981 20.9164 57.1632 20.9435 57.3417L20.8608 57.2749L38.055 57.1414L43.2098 57.1127H45.1178L45.1083 57.1286Z" fill="#263238"/>
<path id="Vector_32" d="M131.801 22.0246C131.945 20.9657 130.45 20.0943 129.327 20.0021C128.79 19.9608 128.237 20.0403 127.737 19.8654C126.637 19.4806 126.198 18.0591 125.127 17.6076C124.322 17.2705 123.4 17.5694 122.621 17.9637C121.842 18.3581 121.075 18.8478 120.207 18.9018C119.45 18.9495 118.617 18.6697 117.981 19.0386C117.488 19.3152 117.231 19.8813 116.776 20.2184C116.303 20.5089 115.757 20.6568 115.202 20.6445C114.648 20.6307 114.097 20.7202 113.577 20.9084C113.074 21.1406 112.661 21.6684 112.766 22.2122L131.801 22.0246Z" fill="white"/>
<path id="Vector_33" d="M131.801 22.0246H131.709H131.429L130.345 22.0469L126.31 22.1105L112.744 22.279H112.674V22.2122C112.648 22.051 112.658 21.8862 112.701 21.7288C112.744 21.5714 112.821 21.4251 112.925 21.2996C113.131 21.0406 113.409 20.8472 113.723 20.7431C114.439 20.4982 115.176 20.6031 115.851 20.4759C116.185 20.4307 116.502 20.2992 116.77 20.0943C117.018 19.8636 117.247 19.6137 117.457 19.347C117.685 19.073 117.996 18.8809 118.344 18.8001C118.678 18.7426 119.018 18.7341 119.355 18.7746C119.672 18.8119 119.991 18.8194 120.309 18.7969C120.617 18.7617 120.919 18.6836 121.206 18.5648C121.778 18.3358 122.296 18.0114 122.843 17.7634C123.369 17.4963 123.953 17.3661 124.542 17.385C124.825 17.4043 125.101 17.4869 125.349 17.6267C125.585 17.7634 125.799 17.9337 125.985 18.1323C126.345 18.5107 126.621 18.9209 126.962 19.2485C127.256 19.5789 127.652 19.8025 128.087 19.8845C128.501 19.9512 128.905 19.9131 129.283 19.9417C129.935 19.9978 130.559 20.2321 131.086 20.619C131.429 20.8449 131.684 21.1817 131.808 21.573C131.842 21.7125 131.848 21.8575 131.824 21.9992C131.823 21.859 131.807 21.7193 131.776 21.5826C131.633 21.2065 131.369 20.8887 131.026 20.6795C130.503 20.3116 129.891 20.0919 129.254 20.0435C128.885 20.0212 128.482 20.0625 128.049 19.9989C127.593 19.9233 127.174 19.6999 126.857 19.3629C126.513 19.0259 126.221 18.6156 125.871 18.2499C125.694 18.0625 125.492 17.9009 125.27 17.7698C125.039 17.6421 124.783 17.5672 124.519 17.5503C123.955 17.536 123.395 17.6616 122.891 17.916C122.357 18.1609 121.839 18.4884 121.25 18.7269C120.952 18.8533 120.637 18.9368 120.315 18.975C119.987 18.9989 119.657 18.9925 119.33 18.9559C119.012 18.918 118.691 18.9254 118.376 18.9782C118.06 19.0523 117.778 19.229 117.574 19.4806C117.359 19.7526 117.123 20.0077 116.868 20.2438C116.579 20.4658 116.237 20.6092 115.876 20.6604C115.17 20.7908 114.439 20.6922 113.774 20.9211C113.488 21.0112 113.234 21.1825 113.043 21.414C112.953 21.5212 112.888 21.6459 112.85 21.7802C112.812 21.9144 112.803 22.0551 112.823 22.1931L112.741 22.1264L126.256 22.031H130.31H131.703L131.801 22.0246Z" fill="#263238"/>
</g>
<g id="freepik--Character--inject-5">
<path id="Vector_34" d="M76.3582 77.9194L76.1292 83.1473C76.1292 83.1473 81.3667 85.138 81.4207 86.1079L71.2638 86.0284L71.2861 77.8654L76.3582 77.9194Z" fill="#455A64"/>
<path id="Vector_35" d="M72.9937 82.6831C72.8957 82.712 72.8118 82.7759 72.7579 82.8627C72.7039 82.9494 72.6837 83.053 72.7012 83.1537C72.7261 83.2528 72.7883 83.3385 72.8747 83.3929C72.9612 83.4474 73.0653 83.4665 73.1655 83.4463C73.2716 83.4184 73.3633 83.3515 73.4223 83.2589C73.4812 83.1664 73.5031 83.055 73.4835 82.947C73.4467 82.8467 73.3725 82.7644 73.2765 82.7176C73.1804 82.6708 73.07 82.6629 72.9683 82.6958" fill="#E0E0E0"/>
<g id="Group" opacity="0.6">
<path id="Vector_36" d="M71.2638 86.0285L71.2988 85.2048L81.0232 85.5896C81.0232 85.5896 81.4748 85.79 81.4207 86.108L71.2638 86.0285Z" fill="white"/>
</g>
<path id="Vector_37" d="M76.2946 83.106C76.2946 83.1569 76.0434 83.1792 75.7985 83.335C75.5537 83.4908 75.4233 83.7007 75.3756 83.6816C75.3279 83.6625 75.4074 83.3636 75.6936 83.1887C75.9798 83.0138 76.3042 83.052 76.2946 83.106Z" fill="#263238"/>
<path id="Vector_38" d="M77.3568 83.5481C77.3568 83.5958 77.1532 83.6785 76.9815 83.8852C76.8098 84.0919 76.7621 84.3145 76.7112 84.3145C76.6603 84.3145 76.6317 84.0314 76.848 83.7739C77.0642 83.5163 77.3568 83.5004 77.3568 83.5481Z" fill="#263238"/>
<path id="Vector_39" d="M77.9513 84.8264C77.9068 84.8264 77.84 84.5879 77.9672 84.3176C78.0944 84.0473 78.3298 83.9423 78.352 83.9837C78.3743 84.025 78.228 84.1681 78.1231 84.3907C78.0181 84.6133 77.999 84.8232 77.9513 84.8264Z" fill="#263238"/>
<path id="Vector_40" d="M76.215 81.9008C76.1928 81.9453 75.967 81.8754 75.684 81.9008C75.401 81.9262 75.1847 82.0057 75.1593 81.9612C75.1338 81.9167 75.3469 81.745 75.6776 81.7291C76.0083 81.7132 76.2373 81.8626 76.215 81.9008Z" fill="#263238"/>
<path id="Vector_41" d="M92.1373 77.9194L91.9115 83.1473C91.9115 83.1473 97.1522 85.138 97.2031 86.1079L87.0461 86.0284L87.0684 77.8654L92.1373 77.9194Z" fill="#455A64"/>
<path id="Vector_42" d="M88.7729 82.6831C88.6752 82.7126 88.5917 82.7767 88.5379 82.8633C88.484 82.9499 88.4636 83.0532 88.4803 83.1538C88.5052 83.2528 88.5674 83.3385 88.6539 83.393C88.7403 83.4475 88.8444 83.4666 88.9446 83.4463C89.0511 83.4191 89.1433 83.3524 89.2024 83.2596C89.2614 83.1669 89.283 83.0551 89.2626 82.9471C89.2265 82.8462 89.1524 82.7635 89.0561 82.7166C88.9599 82.6696 88.8491 82.6622 88.7474 82.6958" fill="#E0E0E0"/>
<g id="Group_2" opacity="0.6">
<path id="Vector_43" d="M87.043 86.0285L87.0779 85.2048L96.8024 85.5896C96.8024 85.5896 97.2539 85.79 97.1999 86.108L87.043 86.0285Z" fill="white"/>
</g>
<path id="Vector_44" d="M92.0738 83.106C92.0738 83.1569 91.8225 83.1792 91.5777 83.335C91.3328 83.4908 91.2024 83.7007 91.1579 83.6816C91.1134 83.6625 91.1865 83.3636 91.4759 83.1887C91.7653 83.0138 92.0865 83.052 92.0738 83.106Z" fill="#263238"/>
<path id="Vector_45" d="M93.1359 83.5481C93.1359 83.5958 92.9323 83.6785 92.7606 83.8852C92.5889 84.0919 92.5412 84.3145 92.4903 84.3145C92.4394 84.3145 92.414 84.0314 92.6302 83.7739C92.8465 83.5163 93.1359 83.5004 93.1359 83.5481Z" fill="#263238"/>
<path id="Vector_46" d="M93.7305 84.8264C93.686 84.8264 93.6192 84.5879 93.7496 84.3176C93.88 84.0473 94.109 83.9423 94.1312 83.9837C94.1535 84.025 94.0072 84.1681 93.9054 84.3907C93.8037 84.6133 93.7814 84.8232 93.7305 84.8264Z" fill="#263238"/>
<path id="Vector_47" d="M91.9942 81.9008C91.972 81.9453 91.7462 81.8754 91.4664 81.9008C91.1865 81.9262 90.9671 82.0057 90.9417 81.9612C90.9162 81.9167 91.1261 81.745 91.4568 81.7291C91.7875 81.7132 92.0197 81.8626 91.9942 81.9008Z" fill="#263238"/>
<path id="Vector_48" d="M71.3116 9.24737C70.9289 8.27831 70.6299 7.27825 70.418 6.25817C70.2066 5.23351 70.2536 4.17234 70.5547 3.17039C70.6024 3.02093 71.0349 2.01287 71.1907 2.02241C71.302 2.02241 71.0476 2.97641 71.108 3.06227C71.6543 3.99517 71.9049 5.07179 71.8267 6.15005C71.7713 7.19537 71.5985 8.23114 71.3116 9.23783" fill="#263238"/>
<path id="Vector_49" d="M71.6454 14.7901L71.267 5.34231C71.0889 2.73789 72.2528 0.400594 74.8635 0.295654H75.1466C76.3081 0.316446 77.4194 0.773455 78.2595 1.57588C79.0996 2.3783 79.6072 3.46741 79.6812 4.62681C79.8243 6.89733 79.9547 9.41589 79.9166 10.6338C79.8434 13.1365 77.3312 13.4958 77.3312 13.4958C77.3312 13.4958 77.4393 15.3116 77.4584 16.0398C77.4584 16.0398 77.1913 16.2338 74.8572 16.3165C72.5231 16.3992 71.6454 14.7901 71.6454 14.7901Z" fill="#FFBF9D"/>
<path id="Vector_50" d="M77.3312 13.4864C76.18 13.4606 75.0602 13.1065 74.1035 12.4656C74.1035 12.4656 74.8667 14.3004 77.3694 14.1192L77.3312 13.4864Z" fill="#FF9A6C"/>
<path id="Vector_51" d="M78.8195 6.90368C78.8195 6.99705 78.7829 7.08669 78.7174 7.1533C78.652 7.21992 78.5631 7.25818 78.4697 7.25984C78.3793 7.26513 78.2904 7.23481 78.222 7.17537C78.1537 7.11594 78.1113 7.03212 78.104 6.94184C78.1056 6.84874 78.1434 6.7599 78.2092 6.69406C78.275 6.62821 78.3639 6.5905 78.457 6.58886C78.5468 6.58274 78.6353 6.61243 78.7032 6.67143C78.7712 6.73043 78.813 6.81394 78.8195 6.90368Z" fill="#263238"/>
<path id="Vector_52" d="M79.0484 6.01011C79.0039 6.05781 78.7304 5.85111 78.3488 5.84475C77.9672 5.83839 77.681 6.02601 77.6397 5.97831C77.5983 5.93061 77.6651 5.87655 77.7891 5.78751C77.9583 5.67467 78.1583 5.61692 78.3615 5.62215C78.5614 5.62621 78.755 5.69295 78.9149 5.81295C79.0325 5.90517 79.0707 5.99103 79.0484 6.01011Z" fill="#263238"/>
<path id="Vector_53" d="M75.5282 6.96411C75.4837 7.00863 75.2102 6.80511 74.8318 6.79875C74.4534 6.79239 74.1609 6.98001 74.1195 6.93231C74.0782 6.88461 74.1449 6.82737 74.2721 6.74151C74.4395 6.62734 74.6389 6.56943 74.8414 6.57615C75.0422 6.57706 75.2374 6.64287 75.3979 6.76377C75.5124 6.85917 75.5505 6.94185 75.5282 6.96411Z" fill="#263238"/>
<path id="Vector_54" d="M76.7017 9.04383C76.9082 8.9818 77.1221 8.94758 77.3377 8.94207C77.4362 8.94207 77.5285 8.91663 77.5475 8.84985C77.5579 8.74844 77.5368 8.64629 77.4871 8.55729L77.2105 7.80363C76.9476 7.16393 76.735 6.50474 76.5745 5.83203C76.8838 6.4462 77.1433 7.08426 77.3504 7.74003L77.6175 8.49687C77.6769 8.61606 77.6915 8.75258 77.6588 8.88165C77.6448 8.91646 77.6228 8.94752 77.5947 8.97236C77.5665 8.9972 77.533 9.01513 77.4967 9.02475C77.4413 9.03668 77.3848 9.04307 77.3281 9.04383C77.1202 9.07126 76.9096 9.07126 76.7017 9.04383Z" fill="#263238"/>
<path id="Vector_55" d="M75.5472 5.93697C75.4995 6.03873 75.1211 5.95605 74.6664 5.96877C74.2117 5.98149 73.8364 6.07371 73.7855 5.96877C73.7633 5.92425 73.8364 5.83203 73.9922 5.74299C74.1991 5.63654 74.4276 5.5789 74.6603 5.57449C74.8929 5.57008 75.1234 5.61902 75.3342 5.71755C75.4932 5.80023 75.5695 5.88927 75.5472 5.93697Z" fill="#263238"/>
<path id="Vector_56" d="M79.1916 4.56003C79.1343 4.66179 78.8131 4.63953 78.4506 4.71267C78.0881 4.78581 77.7924 4.91619 77.7033 4.84305C77.662 4.80489 77.7033 4.70949 77.8083 4.60137C77.97 4.45882 78.1682 4.36413 78.3807 4.32789C78.5928 4.28457 78.8127 4.29996 79.0167 4.37241C79.1629 4.44237 79.2234 4.52187 79.1916 4.56003Z" fill="#263238"/>
<path id="Vector_57" d="M71.4387 7.18356C71.3942 7.16448 69.7247 6.64614 69.7502 8.35698C69.7756 10.0678 71.4896 9.69258 71.4928 9.64488C71.496 9.59718 71.4387 7.18356 71.4387 7.18356Z" fill="#FFBF9D"/>
<path id="Vector_58" d="M70.9235 9.01205C70.9235 9.01205 70.8917 9.03431 70.8409 9.05657C70.8056 9.07144 70.7678 9.0791 70.7296 9.0791C70.6913 9.0791 70.6535 9.07144 70.6183 9.05657C70.507 8.98755 70.416 8.89027 70.3546 8.77464C70.2931 8.65901 70.2634 8.52916 70.2685 8.39831C70.2615 8.25131 70.2876 8.10462 70.3448 7.96901C70.3608 7.91545 70.3894 7.86648 70.4281 7.82612C70.4668 7.78576 70.5145 7.75517 70.5674 7.73687C70.6012 7.72745 70.6373 7.73026 70.6693 7.7448C70.7013 7.75934 70.7271 7.78468 70.7423 7.81637C70.7677 7.86407 70.7423 7.89905 70.7677 7.90223C70.7932 7.90541 70.8027 7.87361 70.7868 7.80047C70.7767 7.75911 70.7532 7.72223 70.72 7.69553C70.6724 7.66068 70.6131 7.64584 70.5547 7.65419C70.4823 7.66667 70.4147 7.69833 70.3587 7.74588C70.3028 7.79342 70.2606 7.85511 70.2367 7.92449C70.165 8.07409 70.1312 8.23896 70.1381 8.40467C70.1318 8.55732 70.171 8.7084 70.2509 8.83865C70.3307 8.9689 70.4476 9.07244 70.5865 9.13607C70.6322 9.14881 70.6803 9.15114 70.727 9.14289C70.7738 9.13463 70.8181 9.11601 70.8568 9.08837C70.9235 9.05021 70.9235 9.01205 70.9235 9.01205Z" fill="#FF9A6C"/>
<path id="Vector_59" d="M78.5079 1.86023C78.7814 1.69805 77.9291 0.820366 77.2359 0.527806C76.196 0.0857858 74.6156 -0.165434 73.6743 0.123946C72.539 0.476926 71.6009 1.07795 71.0508 2.12099C70.5249 3.19351 70.2923 4.38612 70.3766 5.57765C70.3707 5.94256 70.4618 6.30251 70.6406 6.62069C70.8886 6.99274 71.3529 7.2217 71.3465 7.74322C71.3426 7.83794 71.3574 7.9325 71.3901 8.02146C71.4229 8.11042 71.4729 8.19202 71.5373 8.26157C71.8553 8.57957 72.2337 8.26157 72.4023 7.94356C72.7648 7.26622 72.7871 6.46169 72.803 5.69213C72.8424 5.14612 72.793 4.59732 72.6567 4.06715C72.5645 3.78413 72.4245 3.51701 72.3387 3.22763C72.2915 3.08598 72.2759 2.93573 72.2929 2.78742C72.31 2.6391 72.3592 2.4963 72.4373 2.36903C72.4783 2.31721 72.5241 2.26931 72.574 2.22593C72.8083 2.01218 73.0952 1.86451 73.4053 1.79802C73.7154 1.73153 74.0376 1.74861 74.3389 1.84751C75.312 2.16551 76.9719 2.63615 77.3949 2.29907C77.6973 2.0898 77.952 1.81886 78.1422 1.50407L78.5079 1.86023Z" fill="#263238"/>
<path id="Vector_60" d="M76.9656 10.0838C76.9656 10.1124 76.8798 10.1696 76.708 10.1887C76.482 10.2111 76.2541 10.1704 76.0498 10.071C75.8396 9.982 75.6588 9.83539 75.5283 9.64809C75.436 9.50181 75.4201 9.39369 75.4456 9.38097C75.471 9.36825 75.7095 9.69897 76.1293 9.88341C76.549 10.0679 76.937 10.0202 76.9656 10.0838Z" fill="#263238"/>
<path id="Vector_61" d="M100.816 5.91473C100.816 5.91473 100.749 5.51405 100.552 5.51405C100.418 5.51339 100.288 5.55074 100.175 5.62171C100.063 5.69269 99.9725 5.79434 99.9156 5.91473C99.7789 6.20729 100.816 5.91473 100.816 5.91473Z" fill="#FFBF9D"/>
<path id="Vector_62" d="M95.7594 12.2906L95.9565 9.13289L96.5925 5.87975C96.5925 5.87975 97.0886 5.35187 97.3525 5.47271C97.6165 5.59355 97.5179 6.03239 97.5179 6.03239C97.5179 6.03239 98.2111 5.28191 98.4719 5.45363C98.7327 5.62535 98.6373 6.03239 98.6373 6.03239C98.6373 6.03239 99.2733 5.19923 99.5626 5.42819C99.852 5.65715 99.5626 6.03239 99.5626 6.03239C99.5626 6.03239 99.9538 9.67349 99.7566 10.9773C99.697 11.3574 99.5472 11.7176 99.3198 12.028C99.0924 12.3384 98.7941 12.5898 98.4496 12.7613L97.9249 14.8092L95.3396 13.4036L95.7594 12.2906Z" fill="#FFBF9D"/>
<path id="Vector_63" d="M97.3399 8.15663L83.3033 8.00081V6.87827L97.3399 6.48395V8.15663Z" fill="#FF9A6C"/>
<path id="Vector_64" d="M112.162 9.26965L92.3281 8.43331C92.0809 7.72389 92.0809 6.95172 92.3281 6.24229L112.044 5.37097C112.931 6.31543 112.941 8.29975 112.162 9.26965Z" fill="#FF9A6C"/>
<path id="Vector_65" d="M111.971 5.55219C111.971 5.55219 111.373 6.11187 111.395 7.32981C111.418 8.54774 112.031 9.05973 112.031 9.05973C112.462 8.52229 112.662 7.83628 112.588 7.15173C112.483 5.95923 111.971 5.55219 111.971 5.55219Z" fill="#E0E0E0"/>
<path id="Vector_66" d="M111.176 9.26962C111.014 9.1398 110.883 8.97584 110.791 8.78944C110.532 8.35366 110.397 7.85568 110.4 7.3489C110.4 6.84598 110.518 6.35011 110.747 5.902C110.832 5.70997 110.966 5.5434 111.135 5.41864C111.157 5.41864 111.004 5.6158 110.852 5.95288C110.665 6.39589 110.568 6.87139 110.565 7.35208C110.562 7.83166 110.671 8.30535 110.883 8.73538C110.991 8.90766 111.089 9.08604 111.176 9.26962Z" fill="#263238"/>
<path id="Vector_67" d="M112.06 5.41547C112.082 5.43455 111.936 5.61899 111.777 5.95607C111.569 6.39324 111.466 6.87283 111.475 7.35688C111.484 7.84092 111.606 8.31614 111.831 8.74493C111.916 8.92562 112.036 9.08772 112.184 9.22193C112.184 9.22193 112.117 9.22193 112.025 9.15515C111.904 9.05842 111.803 8.9384 111.729 8.80217C111.463 8.36742 111.317 7.86933 111.308 7.35944C111.298 6.84956 111.425 6.34639 111.675 5.90201C111.763 5.71162 111.895 5.54486 112.06 5.41547Z" fill="#263238"/>
<path id="Vector_68" d="M112.318 6.43306C112.295 6.36905 112.259 6.31053 112.213 6.26134C112.19 6.23614 112.161 6.21712 112.129 6.206C112.096 6.19489 112.062 6.19205 112.028 6.19774C111.995 6.20578 111.964 6.22274 111.939 6.24682C111.915 6.27089 111.897 6.30118 111.888 6.33448C111.872 6.40076 111.88 6.47068 111.911 6.53164C111.984 6.67474 112.101 6.8083 112.095 6.9514C112.089 7.0945 112.057 7.2376 112.066 7.3807C112.069 7.43282 112.086 7.48329 112.114 7.52698C112.128 7.54933 112.148 7.56739 112.171 7.57918C112.195 7.59096 112.221 7.59601 112.248 7.59376C112.334 7.59376 112.375 7.48564 112.394 7.40296C112.469 7.07953 112.443 6.74074 112.318 6.43306Z" fill="white"/>
<path id="Vector_69" d="M92.325 8.50324C92.1165 8.16202 92.0218 7.76334 92.0547 7.3648C92.0378 6.96424 92.1492 6.56874 92.3727 6.2359C92.4204 6.25498 92.236 6.74152 92.2296 7.36798C92.2233 7.99444 92.3727 8.48734 92.325 8.50324Z" fill="#263238"/>
<path id="Vector_70" d="M83.2747 8.26791C83.2182 8.26791 83.164 8.24546 83.124 8.2055C83.0841 8.16554 83.0616 8.11135 83.0616 8.05485V6.86553C83.0616 6.80902 83.0841 6.75483 83.124 6.71487C83.164 6.67491 83.2182 6.65247 83.2747 6.65247C83.3315 6.65246 83.386 6.6748 83.4265 6.71467C83.467 6.75454 83.4901 6.80873 83.4909 6.86553V8.05803C83.4893 8.11427 83.4658 8.16765 83.4254 8.20684C83.385 8.24602 83.331 8.26793 83.2747 8.26791Z" fill="#5E77EE"/>
<path id="Vector_71" d="M83.2746 8.26794C83.2746 8.26794 83.3319 8.26794 83.3891 8.1948C83.4232 8.16121 83.4427 8.11548 83.4432 8.0676C83.4432 7.99446 83.4432 7.92132 83.4432 7.845C83.4432 7.6542 83.4432 7.45704 83.4273 7.25352C83.4273 7.13904 83.4273 7.02456 83.4273 6.90372C83.4321 6.88358 83.4323 6.86261 83.4278 6.84239C83.4233 6.82217 83.4143 6.80323 83.4015 6.787C83.3886 6.77076 83.3722 6.75767 83.3535 6.74869C83.3349 6.73972 83.3144 6.7351 83.2937 6.73518C83.2732 6.73568 83.253 6.74069 83.2347 6.74984C83.2163 6.759 83.2002 6.77208 83.1874 6.78816C83.1747 6.80424 83.1657 6.82293 83.1609 6.8429C83.1562 6.86288 83.156 6.88364 83.1602 6.90372C83.1602 7.02456 83.1602 7.13904 83.1602 7.25352C83.1602 7.46552 83.1538 7.66268 83.1411 7.845V8.0676C83.1407 8.09112 83.1451 8.11446 83.1538 8.13629C83.1625 8.15812 83.1755 8.17801 83.192 8.1948C83.2492 8.25204 83.3096 8.25522 83.3064 8.26794C83.3033 8.28066 83.246 8.30292 83.1506 8.24568C83.1226 8.22645 83.0991 8.20147 83.0815 8.1724C83.064 8.14334 83.0528 8.11086 83.0489 8.07714C83.0489 8.00082 83.0489 7.9245 83.0489 7.845C83.0489 7.6542 83.0489 7.45704 83.033 7.25352C83.033 7.13904 83.033 7.02456 83.033 6.90372C83.0255 6.82269 83.0494 6.74189 83.0997 6.67794C83.1277 6.64426 83.1626 6.61713 83.2022 6.59844C83.2418 6.57976 83.2849 6.56999 83.3287 6.56982C83.3728 6.57077 83.4162 6.58087 83.4561 6.59948C83.4961 6.6181 83.5317 6.64482 83.5608 6.67794C83.61 6.74235 83.6328 6.82311 83.6244 6.90372C83.6244 7.02456 83.6244 7.13904 83.6244 7.25352C83.6244 7.46552 83.6181 7.66268 83.6054 7.845C83.6054 7.9245 83.6054 8.00082 83.6054 8.07714C83.6002 8.11089 83.5883 8.14324 83.5702 8.17222C83.5522 8.2012 83.5284 8.22619 83.5004 8.24568C83.3255 8.30292 83.2715 8.2743 83.2746 8.26794Z" fill="#263238"/>
<path id="Vector_72" d="M85.7138 10.6211C85.7138 10.6211 85.4148 6.93549 85.5039 6.61113C85.5929 6.28677 86.6073 5.14833 86.9635 5.11017C87.3197 5.07201 87.3578 5.46633 87.3578 5.46633C87.654 5.26923 87.9932 5.14601 88.3468 5.10699C88.482 5.09364 88.6173 5.13171 88.7258 5.21362C88.8342 5.29553 88.9078 5.41527 88.9319 5.54901C89.1679 5.40784 89.4494 5.3634 89.7174 5.42499C89.9273 5.46315 90.1689 5.83203 90.1689 5.83203C90.1689 5.83203 90.6873 5.60943 90.9353 5.83203C91.1379 6.05502 91.2511 6.34486 91.2533 6.64611C90.9228 6.64396 90.6 6.74636 90.3311 6.93867C90.2711 7.74175 90.1617 8.54038 90.0036 9.33003C89.8064 10.1187 89.0241 10.7737 88.7602 11.1808L88.5535 13.906L85.2018 12.138L85.7138 10.6211Z" fill="#FFBF9D"/>
<path id="Vector_73" d="M86.4674 6.88782C86.4457 6.71833 86.459 6.54619 86.5066 6.38207C86.5542 6.21796 86.635 6.06538 86.7441 5.93382C86.8299 5.7852 86.9457 5.65612 87.0843 5.55482C87.2228 5.45352 87.381 5.38224 87.5486 5.34552C87.307 5.55402 87.0836 5.78275 86.8808 6.02922C86.721 6.30431 86.5828 6.59137 86.4674 6.88782Z" fill="#FF9A6C"/>
<path id="Vector_74" d="M88.0956 6.82421C88.0481 6.67777 88.036 6.52214 88.0603 6.37012C88.0846 6.21809 88.1447 6.07401 88.2355 5.94971C88.3495 5.75839 88.5241 5.61064 88.7316 5.52995C88.8906 5.47589 88.9956 5.48861 88.9987 5.50769C89.0019 5.52677 88.6108 5.63489 88.3786 6.03875C88.2576 6.29018 88.1628 6.55338 88.0956 6.82421Z" fill="#FF9A6C"/>
<path id="Vector_75" d="M89.3104 6.70334C89.2658 6.70334 89.339 6.344 89.6538 6.06734C89.9686 5.79068 90.3184 5.74934 90.3216 5.7875C90.3248 5.82566 90.0386 5.93696 89.7651 6.19136C89.4916 6.44576 89.3676 6.71924 89.3104 6.70334Z" fill="#FF9A6C"/>
<path id="Vector_76" d="M97.89 11.5275C98.4497 10.8692 98.0236 9.09793 98.0236 9.09793C98.2584 9.01426 98.4702 8.87655 98.642 8.69592C98.8138 8.51529 98.9407 8.29679 99.0125 8.05807C99.2097 7.26625 98.8154 7.13269 98.8154 7.13269C98.6818 7.19947 97.4607 7.99129 96.8342 8.32201C96.2078 8.65273 96.0106 12.0108 96.0106 12.0108" fill="#FFBF9D"/>
<path id="Vector_77" d="M96.0106 11.9981C95.9942 11.8512 95.9942 11.7029 96.0106 11.556C96.0265 11.273 96.0551 10.866 96.1155 10.3604C96.1737 9.76425 96.3061 9.17776 96.5099 8.61453C96.5463 8.5318 96.5911 8.45296 96.6434 8.37921C96.703 8.30147 96.7804 8.23929 96.8692 8.19795C97.0218 8.11527 97.1872 8.02623 97.3303 7.93401L98.2843 7.34571C98.4497 7.24395 98.6023 7.14537 98.774 7.04679L98.8058 7.02771L98.8376 7.04361C98.9018 7.0747 98.9585 7.11917 99.004 7.17402C99.0496 7.22887 99.0828 7.29284 99.1015 7.36161C99.1385 7.47867 99.1526 7.60176 99.1429 7.72413C99.13 8.0494 99.0176 8.36287 98.8208 8.6222C98.624 8.88152 98.3524 9.0742 98.0426 9.17421L98.0871 9.09153C98.23 9.68915 98.2602 10.3082 98.1762 10.9169C98.1464 11.0865 98.0884 11.2499 98.0045 11.4002C97.9723 11.4514 97.9326 11.4975 97.8868 11.537C97.9066 11.4809 97.9333 11.4275 97.9663 11.3779C98.0341 11.2275 98.0791 11.0678 98.0999 10.9041C98.1517 10.3076 98.1022 9.70657 97.9536 9.12651L97.9377 9.06609L97.9981 9.04383C98.3534 8.90724 98.6479 8.64772 98.8281 8.31243C98.9196 8.12691 98.9715 7.92442 98.9807 7.71777C98.9984 7.62302 98.9893 7.52521 98.9545 7.43533C98.9197 7.34545 98.8605 7.26706 98.7835 7.20897H98.8472C98.6977 7.29483 98.5292 7.40295 98.3733 7.50153C98.0553 7.70505 97.7373 7.90221 97.4193 8.08983C97.2635 8.18205 97.1013 8.27109 96.9519 8.35377C96.8817 8.38326 96.8204 8.43036 96.7738 8.49051C96.7254 8.55259 96.6858 8.62108 96.6561 8.69403C96.4502 9.24147 96.3103 9.81154 96.2395 10.3922C96.1632 10.8914 96.1155 11.2985 96.0805 11.5783C96.0701 11.7201 96.0467 11.8606 96.0106 11.9981Z" fill="#FF9A6C"/>
<path id="Vector_78" d="M71.655 40.9996C71.655 40.9996 72.0461 57.0046 71.655 58.9571C71.2639 60.9096 70.6056 68.9773 70.6056 74.962C70.6056 80.9468 70.8568 82.311 70.8568 82.311H76.6667C76.6667 82.311 77.0801 70.933 78.8736 64.344C80.5399 58.2289 82.4574 48.9305 82.4574 44.8983V39.4382H72.1765L71.655 40.9996Z" fill="#263238"/>
<path id="Vector_79" d="M85.7106 39.4382C85.7106 39.4382 91.8067 56.3558 92.1978 61.3007C92.589 66.2456 92.6049 82.311 92.6049 82.311H86.5883L85.7869 62.913L81.1569 50.3393V39.4382H85.7106Z" fill="#263238"/>
<path id="Vector_80" d="M82.4575 48.549C82.4456 48.7035 82.42 48.8568 82.3812 49.0069C82.3207 49.3249 82.2381 49.751 82.1395 50.2534C81.9328 51.3378 81.6561 52.7784 81.354 54.3684C81.0519 55.9584 80.7498 57.4307 80.5177 58.4769C80.4 59.0016 80.2983 59.4309 80.2219 59.7139C80.191 59.8675 80.1452 60.0176 80.0852 60.1623C80.0967 60.0066 80.1222 59.8523 80.1615 59.7012C80.2219 59.3832 80.3046 58.9571 80.4 58.4546C80.6099 57.3703 80.8834 55.9297 81.1887 54.3365C81.4939 52.7434 81.7929 51.2774 82.025 50.2312C82.1427 49.7065 82.2444 49.2772 82.3207 48.9941C82.3506 48.8414 82.3965 48.6922 82.4575 48.549Z" fill="#455A64"/>
<path id="Vector_81" d="M88.0193 46.9081H89.3072C89.3072 46.9081 89.6029 42.4561 88.8588 39.4383C88.1147 36.4205 84.3114 23.3221 84.3114 23.3221L80.1011 16.377L77.8433 15.3721L85.259 40.2365L88.0193 46.9081Z" fill="#455A64"/>
<path id="Vector_82" opacity="0.3" d="M83.3255 25.3064C83.3255 25.3064 87.2242 36.8593 87.8697 39.8867C88.3183 42.2085 88.6453 44.5522 88.8492 46.9081H88.016L84.9537 38.8437C84.9537 38.8437 81.7737 26.0219 81.9104 26.0537C82.0472 26.0855 83.3255 25.3064 83.3255 25.3064Z" fill="black"/>
<path id="Vector_83" d="M70.7645 15.0922L71.1143 12.8662L77.3344 15.6583V14.3131L80.0819 18.8987L86.1239 36.0707C86.3179 36.6017 86.5532 38.3635 86.2002 38.8055L85.7073 39.4415L79.1565 40.2905L72.946 17.8556L70.7645 15.0922Z" fill="#E0E0E0"/>
<path id="Vector_84" opacity="0.3" d="M71.7948 48.549C71.7948 48.549 80.1137 49.4807 81.8182 48.8034C82.3095 48.6029 82.7362 48.271 83.0514 47.8442C83.3666 47.4173 83.5583 46.9119 83.6054 46.3834C83.6054 46.3834 84.4385 40.4781 84.3813 39.1743C84.2852 37.9685 84.1045 36.7709 83.8407 35.5905L71.7789 47.5059L71.7948 48.549Z" fill="black"/>
<path id="Vector_85" d="M78.0594 17.6584C78.0594 17.6584 80.9024 27.3383 80.8801 27.4083C80.8578 27.4783 84.0315 37.314 84.0315 37.314L84.6675 34.3534L80.2473 19.6014L78.4697 17.4231L78.0594 17.6584Z" fill="#5E77EE"/>
<path id="Vector_86" d="M68.917 16.0081C66.0009 17.7857 65.8515 20.5428 67.1489 23.7037C67.362 24.2284 67.7849 25.1283 68.0647 25.7389C69.3177 28.4069 71.9221 32.7603 71.9221 33.7779C71.9221 36.1756 69.7756 47.2961 69.7756 47.2961C69.7756 47.2961 81.408 48.708 82.4574 47.6141C83.5068 46.5202 84.3145 39.6641 83.9775 36.5986C83.6054 33.2151 81.8628 27.4911 81.1568 25.3732C80.7307 24.1012 79.3283 20.9212 77.6588 18.8478C76.4079 17.2918 74.9194 15.9428 73.2481 14.8506L70.7709 13.2288L70.2621 14.946C69.8494 15.343 69.3989 15.6987 68.917 16.0081Z" fill="#455A64"/>
<path id="Vector_87" d="M80.2378 16.7681C80.4795 16.7681 91.1102 20.2407 90.4933 19.9863L90.7795 19.6874L94.5955 13.9125L98.0935 15.9827C98.0935 15.9827 94.6368 22.6002 94.0644 23.6401C93.7906 24.1488 93.3833 24.5734 92.8863 24.8681C92.3894 25.1628 91.8215 25.3165 91.2438 25.3128C90.4647 25.3128 83.8058 24.1966 83.8058 24.1966L80.2378 16.7681Z" fill="#455A64"/>
<path id="Vector_88" d="M84.5149 12.7931L85.3385 11.3367L89.04 13.445L88.4645 15.0477L84.5149 12.7931Z" fill="#E0E0E0"/>
<path id="Vector_89" opacity="0.3" d="M68.2301 23.8023C68.2301 23.8023 75.3756 27.7741 77.6493 28.3115C79.923 28.8489 82.4574 29.5644 82.4574 29.5644L81.4366 26.3145L75.2261 22.5398L68.2301 23.8023Z" fill="black"/>
<path id="Vector_90" d="M68.2301 23.8022C68.1411 23.7354 78.9499 27.58 81.1536 26.8868C83.3574 26.1935 84.0697 24.0248 84.8583 22.6669C86.2989 20.2088 88.8524 15.3179 88.8524 15.3179L84.2796 12.7008L79.7258 20.3328C79.7258 20.3328 71.6645 17.0065 70.9236 16.7903C70.1826 16.574 67.8899 16.2751 66.7705 18.9559C65.5176 21.9228 68.2301 23.8022 68.2301 23.8022Z" fill="#455A64"/>
<path id="Vector_91" d="M68.2301 23.8022C68.2002 23.7894 68.1724 23.7722 68.1474 23.7513C68.0965 23.7132 68.0202 23.6527 67.9248 23.5701C67.6459 23.3274 67.3962 23.0531 67.1807 22.7528C66.8256 22.2719 66.5823 21.7178 66.4684 21.131C66.4346 20.9526 66.4144 20.7719 66.408 20.5904C66.408 20.4028 66.427 20.2088 66.4334 20.0053C66.4398 19.8018 66.5034 19.6046 66.567 19.4011C66.6306 19.192 66.7071 18.987 66.7959 18.7873C66.9832 18.3501 67.2434 17.948 67.5655 17.598C67.9215 17.2162 68.3676 16.9298 68.8629 16.7649C69.3987 16.5879 69.9693 16.5432 70.5261 16.6345C70.8178 16.6803 71.103 16.7614 71.3751 16.8762L72.2178 17.1942C74.4883 18.0877 77.0164 19.1212 79.7417 20.2406L79.6463 20.2724L84.1969 12.6404L84.2382 12.5704L84.3082 12.6118L85.9586 13.5658L88.8937 15.2416L88.9637 15.2798L88.9255 15.3498C88.0256 17.067 87.1384 18.7301 86.2671 20.3169C85.8282 21.1119 85.3957 21.8878 84.9569 22.6415C84.5181 23.3952 84.181 24.1679 83.7231 24.8675C83.2957 25.5658 82.7081 26.1523 82.009 26.5783C81.6701 26.7784 81.3005 26.9213 80.9151 27.0013C80.54 27.0443 80.1613 27.0443 79.7862 27.0013C78.4432 26.8269 77.1147 26.5548 75.8112 26.1872C73.4199 25.5512 71.5309 24.9152 70.2335 24.4954C68.9361 24.0757 68.2301 23.8022 68.2301 23.8022C68.2759 23.8063 68.3209 23.817 68.3637 23.834L68.7516 23.9548L70.2494 24.4382C71.5564 24.8484 73.4485 25.4558 75.8367 26.0791C77.1365 26.4388 78.4607 26.7035 79.7989 26.8709C80.1635 26.9123 80.5315 26.9123 80.896 26.8709C81.2634 26.7906 81.6155 26.6521 81.9391 26.4607C82.6177 26.0433 83.1868 25.4698 83.599 24.788C84.0506 24.1043 84.3877 23.3252 84.8265 22.562C85.2654 21.7988 85.6915 21.0356 86.1271 20.2438C86.9953 18.6538 87.8825 16.9906 88.7793 15.2734L88.8142 15.3847L85.8696 13.7152L84.2223 12.7612L84.3336 12.7326C82.7245 15.4165 81.1854 17.9923 79.7735 20.3646L79.7385 20.4219L79.6781 20.3964C76.9656 19.2739 74.4216 18.234 72.1701 17.3277L71.3306 17.0097C71.0671 16.8953 70.7905 16.8142 70.507 16.768C69.9689 16.6781 69.4171 16.7184 68.8979 16.8857C68.4194 17.0433 67.9877 17.3176 67.6418 17.6839C67.3265 18.0217 67.0696 18.4097 66.8818 18.8319C66.793 19.0272 66.7166 19.228 66.6528 19.4329C66.5892 19.63 66.5638 19.8336 66.5193 20.0244C66.4747 20.2152 66.4779 20.4091 66.4875 20.5936C66.4921 20.7717 66.5101 20.9492 66.5415 21.1246C66.648 21.7033 66.8803 22.2515 67.222 22.7305C67.4314 23.0319 67.6735 23.3092 67.9439 23.5573C68.0329 23.6432 68.1061 23.7036 68.157 23.745L68.2301 23.8022Z" fill="#263238"/>
<path id="Vector_92" d="M73.4263 40.0934L74.428 38.0646L81.4367 38.1886L80.6576 40.2874L73.4263 40.0934Z" fill="#455A64"/>
<path id="Vector_93" d="M73.4263 40.0934H73.9955H75.5219C76.8162 40.1125 78.6065 40.1379 80.6608 40.1888L80.5813 40.2429C80.8198 39.6069 81.0678 38.9295 81.3254 38.2395L81.3604 38.1441L81.4367 38.2554C78.6129 38.2045 76.0943 38.1504 74.4407 38.1027L74.4884 38.0741L73.7188 39.5401C73.633 39.7023 73.563 39.8327 73.509 39.9408C73.4847 39.9903 73.4571 40.0381 73.4263 40.0839C73.4263 40.0839 73.4263 40.0425 73.4803 39.9535C73.5344 39.8645 73.5916 39.7182 73.6648 39.556L74.3803 38.0328V38.001H74.4216C76.0879 38.001 78.6065 38.0455 81.4176 38.0964H81.5353L81.4939 38.2045L81.459 38.2999L80.7148 40.3001L80.6926 40.3542H80.6353C78.5429 40.2938 76.7176 40.2238 75.4328 40.1729L73.9319 40.1125L73.5376 40.0934C73.5005 40.0963 73.4633 40.0963 73.4263 40.0934Z" fill="#263238"/>
<path id="Vector_94" d="M78.1039 19.4297C78.0817 19.4711 76.3072 18.4948 74.1385 17.2514C71.9697 16.0081 70.2334 14.9682 70.2557 14.93C70.278 14.8919 72.0524 15.865 74.2212 17.1083C76.3899 18.3517 78.1294 19.3916 78.1039 19.4297Z" fill="#263238"/>
<path id="Vector_95" d="M80.5272 34.7318C80.5272 34.7764 78.8386 34.7064 76.7589 34.5728C74.6792 34.4393 72.9938 34.2962 72.997 34.2548C73.0001 34.2135 74.6887 34.2803 76.7684 34.4138C78.8482 34.5474 80.5304 34.6873 80.5272 34.7318Z" fill="#263238"/>
<path id="Vector_96" d="M94.8276 14.0682L95.5336 12.8789L98.332 14.5134L97.7882 15.8045L94.8276 14.0682Z" fill="#E0E0E0"/>
<path id="Vector_97" d="M91.2246 22.4285C90.9168 22.1192 90.6831 21.7443 90.541 21.3317C90.3989 20.9192 90.3521 20.4798 90.4042 20.0466C90.4519 20.0466 90.4678 20.619 90.6968 21.2773C90.9257 21.9356 91.2755 22.3998 91.2246 22.4285Z" fill="#263238"/>
<path id="Vector_98" d="M84.3782 23.5637C84.6486 24.2071 84.8687 24.8706 85.0364 25.548C85.2572 26.2108 85.4242 26.8904 85.5357 27.5801C85.2663 26.9363 85.0463 26.2729 84.8774 25.5957C84.6566 24.9329 84.4897 24.2534 84.3782 23.5637Z" fill="#263238"/>
<path id="Vector_99" d="M80.0851 22.7337C79.8016 22.4028 79.6135 22.0009 79.5413 21.5712C79.469 21.1414 79.5152 20.7001 79.6749 20.2947C79.654 20.7115 79.6646 21.1292 79.7067 21.5444C79.8024 21.9499 79.929 22.3475 80.0851 22.7337Z" fill="#263238"/>
<path id="Vector_100" opacity="0.3" d="M73.9891 40.1061L73.8651 40.7199L81.1219 40.9234L81.4367 38.1886L80.6576 40.2874L73.9891 40.1061Z" fill="black"/>
<path id="Vector_101" d="M77.1818 17.0097L77.2581 17.0924L78.0594 17.6584L78.4601 17.4326L78.1994 16.5454L77.3535 15.9094L77.1818 17.0097Z" fill="#5E77EE"/>
<path id="Vector_102" d="M78.263 15.9095C78.35 16.1579 78.4108 16.4148 78.4443 16.6758L78.4697 16.8126L78.3521 16.7299C78.0722 16.5327 77.7161 16.272 77.3059 15.9731L77.4331 15.9222C77.3949 16.1734 77.3536 16.4373 77.3122 16.7108C77.2836 16.8762 77.2582 17.0288 77.2359 17.191L77.2168 17.3023L77.1182 17.2514C76.5077 16.9525 75.9766 16.6854 75.5982 16.485C75.3881 16.3912 75.1887 16.275 75.0035 16.1384C75.2244 16.1978 75.4377 16.2821 75.6395 16.3896C76.0307 16.5614 76.5745 16.8126 77.185 17.1051L77.0705 17.1656L77.1437 16.6854C77.1882 16.4119 77.2295 16.148 77.2709 15.8999L77.2931 15.7664L77.3981 15.8459C77.7988 16.1639 78.1517 16.4278 78.4189 16.6409L78.3266 16.6949C78.2792 16.4359 78.2579 16.1727 78.263 15.9095Z" fill="#263238"/>
</g>
</g>
</svg>
