<svg width="20" height="20" viewBox="0 0 20 20" fill="none" xmlns="http://www.w3.org/2000/svg">
<g id="Tweet">
<path id="Vector" d="M19.1875 3C19.0625 2.875 18.875 2.875 18.75 3C18.3125 3.25 17.5625 3.375 16.875 3.4375C16.6875 3.4375 16.4375 3.5 16.25 3.5C15.5 2.8125 14.5 2.375 13.4375 2.375C11.1875 2.375 9.375 4.1875 9.375 6.4375V6.8125C6.75 6.5625 4.3125 5.25 2.625 3.25C2.5 3.125 2.375 3.0625 2.25 3.0625C2.0625 3.125 1.9375 3.1875 1.875 3.3125C1.875 3.375 1.3125 4.625 1.3125 7.875C1.3125 11 4.3125 13.1875 5.6875 14C4.3125 14.875 2.6875 15.1875 1.0625 15.0625C0.875 15.0625 0.6875 15.1875 0.625 15.375C0.5625 15.5625 0.625 15.75 0.8125 15.875C2.5625 17 4.5625 17.5625 6.6875 17.5625C13.4375 17.5625 17.5 12.1875 17.5625 7C17.6875 6.75 18.125 6.1875 18.875 5C19.0625 4.6875 19.3125 3.75 19.375 3.4375C19.375 3.3125 19.3125 3.125 19.1875 3Z" fill="black"/>
</g>
</svg>
